<svg xmlns="http://www.w3.org/2000/svg" height="486.773" width="414.347"><path d="M.133 392.873l2.933-4.133L142.4 124.34l.267-2.8L81.2 6.073c-5.2-9.733-19.6-7.2-21.333 3.6L.133 392.873" fill="#fabc32"/><path d="M187.467 208.873l45.732-46.8-45.732-87.333c-4.4-8.267-16.534-8.267-20.8 0l-24.4 46.667v4l45.2 83.466" fill="#f1b749"/><path d="M.133 392.873l1.333-1.333 4.8-2 178.4-177.6 2.134-6.132-44.4-84.801L.133 392.873" fill="#f47216"/><path d="M193.2 482.473l161.332-90L308.4 108.607c-1.467-8.934-12.4-12.4-18.667-6L.133 392.873l160.534 89.6c10 5.734 22.4 5.734 32.533 0" fill="#f9e149"/><path d="M353.199 391.673l-45.732-281.6c-1.467-8.8-10.534-12.4-16.8-6.133l-288.8 288.4 158.666 88.667c10 5.601 22.267 5.601 32.4 0L353.2 391.673" fill="#f9c727"/><path d="M193.2 479.807c-10.133 5.6-22.533 5.6-32.667 0L1.333 391.54 0 392.873l160.533 89.6c10.134 5.6 22.534 5.6 32.667 0l161.332-90-.399-2.4L193.2 479.807" fill="#eca424"/><path d="M309.415 268.576c57.954 0 104.937 46.983 104.937 104.939 0 57.956-46.983 104.939-104.937 104.939-57.958 0-104.94-46.983-104.94-104.94 0-57.955 46.982-104.938 104.94-104.938" fill="#6e6f71" fill-rule="evenodd"/><path d="M272.955 402.199h7.812c.46 0 .83.37.83.83v6.979c0 .461-.37.83-.83.83h-7.812a.825.825 0 01-.828-.83v-6.978c0-.46.366-.831.828-.831zm-11.746-11.096v20.814a9.439 9.439 0 009.462 9.459h77.018a9.44 9.44 0 009.46-9.459v-20.814zm12.216-27.235h7.811c.459 0 .83.37.83.83v6.98c0 .46-.371.83-.83.83h-7.81a.826.826 0 01-.829-.83v-6.98c0-.46.368-.83.828-.83zm-.273-27.628h72.995c.514 0 .928.416.928.93v13.93c0 .515-.414.93-.928.93h-72.995a.925.925 0 01-.927-.93v-13.93c0-.514.412-.93.927-.93zm-2.013-10.585a9.438 9.438 0 00-9.46 9.458v38.474a9.438 9.438 0 009.46 9.458h77.021a9.437 9.437 0 009.459-9.458v-38.474a9.437 9.437 0 00-9.459-9.458h-77.021" fill="#fff" fill-rule="evenodd"/></svg>