<svg id="svg" version="1.1" xmlns="http://www.w3.org/2000/svg" xmlns:xlink="http://www.w3.org/1999/xlink" width="400" height="404.2105263157895" viewBox="0, 0, 400,404.2105263157895"><g id="svgg"><path id="path0" d="M102.400 81.400 C 101.992 81.891,102.020 82.000,102.551 82.000 C 102.908 82.000,103.200 81.730,103.200 81.400 C 103.200 81.070,103.132 80.800,103.049 80.800 C 102.966 80.800,102.674 81.070,102.400 81.400 M92.255 143.400 C 92.115 143.765,92.255 144.000,92.613 144.000 C 92.936 144.000,93.200 143.730,93.200 143.400 C 93.200 143.070,93.039 142.800,92.843 142.800 C 92.646 142.800,92.382 143.070,92.255 143.400 M301.000 261.901 C 298.397 263.264,299.361 262.788,281.200 271.673 C 274.050 275.171,267.570 278.376,266.800 278.795 L 265.400 279.557 265.292 288.388 C 265.162 299.117,264.869 298.736,270.800 295.561 C 271.130 295.384,272.210 294.844,273.200 294.361 C 274.190 293.877,281.030 290.503,288.400 286.863 C 298.007 282.117,302.196 280.244,303.200 280.244 C 304.204 280.244,308.393 282.117,318.000 286.863 C 325.370 290.503,332.210 293.877,333.200 294.361 C 334.190 294.844,335.270 295.384,335.600 295.561 C 341.531 298.736,341.238 299.117,341.108 288.388 L 341.000 279.557 339.600 278.794 C 338.095 277.974,310.061 264.187,308.649 263.572 C 308.182 263.368,307.530 263.052,307.200 262.868 C 303.884 261.025,302.952 260.879,301.000 261.901 M300.400 294.789 C 298.490 295.766,285.440 302.180,270.400 309.536 C 267.870 310.773,265.668 311.968,265.506 312.193 C 265.090 312.770,265.139 329.285,265.559 329.948 C 265.833 330.380,267.626 329.653,274.053 326.507 C 278.534 324.313,283.010 322.123,284.000 321.640 C 284.990 321.156,286.070 320.601,286.400 320.407 C 289.796 318.403,302.170 312.800,303.200 312.800 C 304.230 312.800,316.604 318.403,320.000 320.407 C 320.330 320.601,321.410 321.156,322.400 321.640 C 323.390 322.123,327.866 324.313,332.347 326.507 C 338.774 329.653,340.567 330.380,340.841 329.948 C 341.032 329.646,341.191 325.504,341.194 320.743 L 341.200 312.087 336.100 309.593 C 330.623 306.915,309.713 296.651,305.866 294.752 C 303.074 293.374,303.169 293.374,300.400 294.789 M308.442 328.020 C 305.935 329.296,303.733 330.578,303.548 330.870 C 303.124 331.539,303.090 348.685,303.513 348.946 C 303.685 349.052,307.535 347.308,312.070 345.070 C 316.604 342.831,320.739 340.807,321.257 340.571 C 321.776 340.335,323.100 339.680,324.200 339.116 C 325.300 338.551,327.190 337.615,328.400 337.036 C 329.610 336.456,331.035 335.648,331.567 335.239 L 332.534 334.496 323.515 330.048 C 313.064 324.894,314.265 325.055,308.442 328.020 " stroke="none" fill="#f6f6f6" fill-rule="evenodd"></path><path id="path1" d="M105.200 62.200 C 104.792 62.691,104.820 62.800,105.351 62.800 C 105.708 62.800,106.000 62.530,106.000 62.200 C 106.000 61.870,105.932 61.600,105.849 61.600 C 105.766 61.600,105.474 61.870,105.200 62.200 M100.821 89.161 C 100.475 89.808,100.532 89.890,101.207 89.714 C 101.643 89.600,102.000 89.258,102.000 88.953 C 102.000 88.151,101.295 88.275,100.821 89.161 M287.425 92.772 C 286.755 93.513,286.760 93.536,287.563 93.326 C 288.023 93.205,288.400 92.858,288.400 92.553 C 288.400 91.821,288.257 91.854,287.425 92.772 M305.200 115.243 C 305.200 115.733,305.318 116.015,305.463 115.870 C 305.608 115.725,305.997 115.830,306.329 116.103 C 306.852 116.535,306.870 116.485,306.463 115.722 C 305.781 114.442,305.200 114.221,305.200 115.243 M306.800 122.684 C 306.800 123.115,307.070 123.467,307.400 123.467 C 307.730 123.467,308.000 123.339,308.000 123.182 C 308.000 123.026,307.730 122.674,307.400 122.400 C 306.901 121.986,306.800 122.034,306.800 122.684 M310.800 149.000 C 310.800 149.330,311.064 149.600,311.387 149.600 C 311.745 149.600,311.885 149.365,311.745 149.000 C 311.618 148.670,311.354 148.400,311.157 148.400 C 310.961 148.400,310.800 148.670,310.800 149.000 M313.600 167.166 C 313.600 167.573,313.937 167.995,314.349 168.103 C 314.917 168.251,315.053 168.124,314.910 167.577 C 314.644 166.560,313.600 166.233,313.600 167.166 M84.000 197.000 C 83.592 197.491,83.620 197.600,84.151 197.600 C 84.508 197.600,84.800 197.330,84.800 197.000 C 84.800 196.670,84.732 196.400,84.649 196.400 C 84.566 196.400,84.274 196.670,84.000 197.000 M297.000 219.202 C 295.020 219.370,291.510 219.792,289.200 220.141 C 285.472 220.705,283.783 221.108,277.400 222.958 C 276.520 223.213,275.440 223.621,275.000 223.864 C 274.560 224.107,273.613 224.431,272.896 224.585 C 271.653 224.852,269.893 225.564,268.238 226.468 C 267.818 226.697,266.288 227.483,264.838 228.214 C 261.494 229.900,255.961 233.230,254.286 234.565 C 253.579 235.129,252.029 236.337,250.843 237.250 C 248.393 239.134,244.272 242.947,241.842 245.577 C 240.939 246.555,239.827 247.725,239.371 248.177 C 237.755 249.781,232.560 256.993,231.718 258.800 C 231.565 259.130,231.008 260.030,230.483 260.800 C 220.631 275.223,216.326 304.638,221.407 322.800 C 222.728 327.522,223.707 330.617,224.001 331.000 C 224.169 331.220,224.440 332.030,224.603 332.800 C 224.918 334.297,230.024 344.902,230.940 345.964 C 231.242 346.314,232.000 347.500,232.625 348.600 C 233.250 349.700,233.872 350.690,234.007 350.800 C 234.141 350.910,235.248 352.350,236.466 354.000 C 237.683 355.650,240.410 358.800,242.525 361.000 C 245.816 364.424,246.372 365.195,246.385 366.354 C 246.399 367.657,247.858 369.600,248.821 369.600 C 249.029 369.600,249.200 369.851,249.200 370.157 C 249.200 370.769,250.041 371.200,251.233 371.200 C 251.655 371.200,252.000 371.470,252.000 371.800 C 252.000 372.130,252.270 372.400,252.600 372.400 C 252.930 372.400,253.200 372.676,253.200 373.013 C 253.200 373.349,253.515 373.741,253.900 373.882 C 254.285 374.024,254.744 374.378,254.920 374.670 C 255.096 374.961,255.750 375.200,256.373 375.200 C 257.170 375.200,257.569 375.437,257.716 376.000 C 257.868 376.583,258.262 376.800,259.163 376.800 C 259.996 376.800,260.400 376.996,260.400 377.400 C 260.400 377.733,260.756 378.000,261.200 378.000 C 261.640 378.000,262.000 378.249,262.000 378.553 C 262.000 379.160,263.187 379.586,264.900 379.595 C 265.609 379.598,266.000 379.813,266.000 380.200 C 266.000 380.615,266.417 380.800,267.353 380.800 C 268.370 380.800,268.759 380.999,268.916 381.600 C 269.068 382.183,269.462 382.400,270.363 382.400 C 271.196 382.400,271.600 382.596,271.600 383.000 C 271.600 383.459,272.106 383.600,273.753 383.600 C 275.570 383.600,275.939 383.725,276.116 384.400 C 276.286 385.050,276.662 385.200,278.120 385.200 C 279.346 385.200,279.987 385.390,280.145 385.800 C 280.317 386.249,281.034 386.400,282.987 386.400 C 284.945 386.400,285.600 386.539,285.600 386.953 C 285.600 388.379,318.984 388.616,320.400 387.200 C 321.007 386.593,321.733 386.400,323.413 386.400 C 325.010 386.400,325.689 386.233,325.855 385.800 C 326.017 385.378,326.676 385.200,328.080 385.200 C 329.738 385.200,330.110 385.065,330.284 384.400 C 330.458 383.737,330.830 383.600,332.459 383.600 C 333.838 383.600,334.494 383.421,334.655 383.000 C 334.789 382.652,335.387 382.400,336.080 382.400 C 336.938 382.400,337.334 382.175,337.484 381.600 C 337.641 380.999,338.030 380.800,339.047 380.800 C 339.983 380.800,340.400 380.615,340.400 380.200 C 340.400 379.806,340.794 379.600,341.546 379.600 C 342.176 379.600,343.150 379.240,343.709 378.800 C 344.269 378.360,345.013 378.000,345.363 378.000 C 345.713 378.000,346.000 377.730,346.000 377.400 C 346.000 377.070,346.345 376.800,346.767 376.800 C 347.959 376.800,348.800 376.369,348.800 375.757 C 348.800 375.451,349.167 375.200,349.616 375.200 C 350.620 375.200,352.800 373.642,352.800 372.925 C 352.800 372.636,353.160 372.400,353.600 372.400 C 354.040 372.400,354.400 372.144,354.400 371.832 C 354.400 371.519,354.925 371.148,355.567 371.007 C 356.208 370.866,356.833 370.492,356.954 370.176 C 357.076 369.859,357.451 369.600,357.787 369.600 C 358.124 369.600,358.400 369.351,358.400 369.047 C 358.400 368.742,358.760 368.399,359.200 368.284 C 359.640 368.169,360.000 367.788,360.000 367.437 C 360.000 367.087,360.276 366.800,360.613 366.800 C 360.949 366.800,361.329 366.530,361.455 366.200 C 361.582 365.870,361.936 365.600,362.243 365.600 C 362.549 365.600,362.800 365.240,362.800 364.800 C 362.800 364.267,363.067 364.000,363.600 364.000 C 364.044 364.000,364.400 363.733,364.400 363.400 C 364.400 363.070,364.670 362.800,365.000 362.800 C 365.333 362.800,365.600 362.444,365.600 362.000 C 365.600 361.560,365.825 361.197,366.100 361.193 C 366.710 361.185,368.400 359.458,368.400 358.844 C 368.400 358.600,368.658 358.400,368.973 358.400 C 369.288 358.400,369.655 358.057,369.788 357.637 C 369.921 357.217,370.294 356.773,370.615 356.650 C 370.937 356.526,371.200 355.969,371.200 355.413 C 371.200 354.753,371.422 354.400,371.837 354.400 C 372.188 354.400,372.569 354.040,372.684 353.600 C 372.799 353.160,373.142 352.800,373.447 352.800 C 373.751 352.800,374.000 352.440,374.000 352.000 C 374.000 351.560,374.262 351.200,374.582 351.200 C 374.930 351.200,375.269 350.638,375.426 349.800 C 375.577 348.998,375.926 348.400,376.245 348.400 C 376.613 348.400,376.800 347.928,376.800 347.000 C 376.800 345.867,376.952 345.600,377.600 345.600 C 378.040 345.600,378.400 345.352,378.400 345.049 C 378.400 344.746,378.670 344.274,379.000 344.000 C 379.366 343.696,379.600 342.820,379.600 341.751 C 379.600 340.267,379.722 340.000,380.400 340.000 C 381.048 340.000,381.200 339.733,381.200 338.600 C 381.200 337.622,381.381 337.200,381.800 337.200 C 382.219 337.200,382.400 336.778,382.400 335.800 C 382.400 334.870,382.587 334.400,382.957 334.400 C 383.650 334.400,384.000 333.531,384.000 331.810 C 384.000 331.002,384.234 330.396,384.600 330.255 C 385.023 330.093,385.200 329.432,385.200 328.013 C 385.200 326.566,385.356 326.000,385.753 326.000 C 386.400 326.000,386.787 324.792,386.795 322.749 C 386.798 321.951,387.070 321.074,387.400 320.800 C 387.916 320.371,388.000 317.892,388.000 303.000 C 388.000 288.108,387.916 285.629,387.400 285.200 C 387.037 284.899,386.800 284.023,386.800 282.984 C 386.800 280.884,386.491 280.000,385.757 280.000 C 385.348 280.000,385.200 279.414,385.200 277.800 C 385.200 276.111,385.061 275.600,384.600 275.600 C 384.159 275.600,384.000 275.142,384.000 273.875 C 384.000 272.704,383.744 271.876,383.200 271.292 C 382.760 270.820,382.400 270.066,382.400 269.617 C 382.400 269.157,382.137 268.800,381.800 268.800 C 381.381 268.800,381.200 268.378,381.200 267.400 C 381.200 266.267,381.048 266.000,380.400 266.000 C 379.706 266.000,379.600 265.733,379.600 263.987 C 379.600 262.568,379.423 261.907,379.000 261.745 C 378.670 261.618,378.400 261.264,378.400 260.957 C 378.400 260.651,378.040 260.400,377.600 260.400 C 376.952 260.400,376.800 260.133,376.800 259.000 C 376.800 258.072,376.613 257.600,376.245 257.600 C 375.926 257.600,375.577 257.002,375.426 256.200 C 375.269 255.362,374.930 254.800,374.582 254.800 C 374.262 254.800,374.000 254.440,374.000 254.000 C 374.000 253.556,373.733 253.200,373.400 253.200 C 373.070 253.200,372.800 252.930,372.800 252.600 C 372.800 252.267,372.444 252.000,372.000 252.000 C 371.352 252.000,371.200 251.733,371.200 250.600 C 371.200 249.622,371.019 249.200,370.600 249.200 C 370.270 249.200,370.000 248.913,370.000 248.563 C 370.000 248.212,369.640 247.831,369.200 247.716 C 368.760 247.601,368.400 247.258,368.400 246.953 C 368.400 246.649,368.130 246.400,367.800 246.400 C 367.470 246.400,367.200 246.113,367.200 245.763 C 367.200 245.412,366.840 245.031,366.400 244.916 C 365.960 244.801,365.600 244.477,365.600 244.196 C 365.600 243.915,365.330 243.582,365.000 243.455 C 364.670 243.329,364.400 242.949,364.400 242.613 C 364.400 242.267,364.052 242.000,363.600 242.000 C 363.160 242.000,362.800 241.800,362.800 241.556 C 362.800 240.942,361.110 239.215,360.500 239.207 C 360.225 239.203,360.000 238.951,360.000 238.647 C 360.000 238.342,359.640 237.999,359.200 237.884 C 358.760 237.769,358.400 237.388,358.400 237.037 C 358.400 236.687,358.130 236.400,357.800 236.400 C 357.470 236.400,357.200 236.130,357.200 235.800 C 357.200 235.470,356.868 235.200,356.462 235.200 C 356.056 235.200,355.398 234.840,355.000 234.400 C 354.602 233.960,353.944 233.600,353.538 233.600 C 353.132 233.600,352.800 233.429,352.800 233.221 C 352.800 232.390,350.865 230.800,349.854 230.800 C 349.184 230.800,348.800 230.582,348.800 230.200 C 348.800 229.870,348.620 229.578,348.400 229.550 C 348.180 229.523,347.820 229.455,347.600 229.400 C 347.380 229.345,346.930 229.278,346.600 229.250 C 346.270 229.222,346.000 228.930,346.000 228.600 C 346.000 228.267,345.644 228.000,345.200 228.000 C 344.760 228.000,344.400 227.744,344.400 227.432 C 344.400 227.118,343.828 226.738,343.123 226.583 C 342.420 226.429,341.597 226.054,341.294 225.751 C 340.991 225.448,340.244 225.200,339.633 225.200 C 339.023 225.200,338.198 224.840,337.800 224.400 C 337.399 223.957,336.568 223.600,335.938 223.600 C 335.193 223.600,334.800 223.393,334.800 223.000 C 334.800 222.567,334.356 222.400,333.200 222.400 C 332.044 222.400,331.600 222.233,331.600 221.800 C 331.600 221.470,331.555 221.194,331.500 221.186 C 331.445 221.178,330.320 221.065,329.000 220.934 C 327.607 220.797,326.466 220.467,326.280 220.149 C 325.886 219.473,322.173 219.396,321.766 220.056 C 321.451 220.565,315.632 220.280,313.200 219.637 C 311.205 219.109,301.253 218.842,297.000 219.202 M80.081 223.302 C 79.708 223.752,79.687 224.007,80.007 224.204 C 80.599 224.570,80.902 224.223,80.735 223.369 C 80.613 222.744,80.549 222.737,80.081 223.302 M76.926 243.100 C 76.789 243.485,76.593 243.953,76.490 244.140 C 76.387 244.327,76.685 244.276,77.152 244.026 C 77.618 243.776,78.000 243.308,78.000 242.986 C 78.000 242.169,77.228 242.252,76.926 243.100 M75.812 250.117 C 75.641 250.512,75.613 250.947,75.751 251.084 C 76.157 251.490,76.484 250.920,76.297 250.131 C 76.132 249.433,76.110 249.432,75.812 250.117 M305.268 261.867 C 306.000 262.235,306.870 262.685,307.200 262.868 C 307.530 263.052,308.182 263.368,308.649 263.572 C 310.061 264.187,338.095 277.974,339.600 278.794 L 341.000 279.557 341.108 288.388 C 341.238 299.117,341.531 298.736,335.600 295.561 C 335.270 295.384,334.190 294.844,333.200 294.361 C 332.210 293.877,325.370 290.503,318.000 286.863 C 308.393 282.117,304.204 280.244,303.200 280.244 C 302.196 280.244,298.007 282.117,288.400 286.863 C 281.030 290.503,274.190 293.877,273.200 294.361 C 272.210 294.844,271.130 295.384,270.800 295.561 C 264.869 298.736,265.162 299.117,265.292 288.388 L 265.400 279.557 266.800 278.795 C 267.570 278.376,274.050 275.171,281.200 271.673 C 299.361 262.788,298.397 263.264,301.000 261.901 C 302.589 261.069,303.658 261.061,305.268 261.867 M305.866 294.752 C 309.713 296.651,330.623 306.915,336.100 309.593 L 341.200 312.087 341.194 320.743 C 341.191 325.504,341.032 329.646,340.841 329.948 C 340.567 330.380,338.774 329.653,332.347 326.507 C 327.866 324.313,323.390 322.123,322.400 321.640 C 321.410 321.156,320.330 320.601,320.000 320.407 C 316.604 318.403,304.230 312.800,303.200 312.800 C 302.170 312.800,289.796 318.403,286.400 320.407 C 286.070 320.601,284.990 321.156,284.000 321.640 C 283.010 322.123,278.534 324.313,274.053 326.507 C 267.626 329.653,265.833 330.380,265.559 329.948 C 265.139 329.285,265.090 312.770,265.506 312.193 C 265.668 311.968,267.870 310.773,270.400 309.536 C 285.440 302.180,298.490 295.766,300.400 294.789 C 303.169 293.374,303.074 293.374,305.866 294.752 M68.655 296.600 C 68.515 296.965,68.655 297.200,69.013 297.200 C 69.336 297.200,69.600 296.930,69.600 296.600 C 69.600 296.270,69.439 296.000,69.243 296.000 C 69.046 296.000,68.782 296.270,68.655 296.600 M66.212 314.517 C 66.041 314.912,66.013 315.347,66.151 315.484 C 66.557 315.890,66.884 315.320,66.697 314.531 C 66.532 313.833,66.510 313.832,66.212 314.517 M323.515 330.048 L 332.534 334.496 331.567 335.239 C 331.035 335.648,329.610 336.456,328.400 337.036 C 327.190 337.615,325.300 338.551,324.200 339.116 C 323.100 339.680,321.776 340.335,321.257 340.571 C 320.739 340.807,316.604 342.831,312.070 345.070 C 307.535 347.308,303.685 349.052,303.513 348.946 C 303.090 348.685,303.124 331.539,303.548 330.870 C 303.971 330.204,312.737 325.717,313.748 325.650 C 314.159 325.622,318.555 327.602,323.515 330.048 M128.800 351.551 C 128.800 351.744,129.070 352.126,129.400 352.400 C 129.901 352.816,130.000 352.758,130.000 352.049 C 130.000 351.561,129.745 351.200,129.400 351.200 C 129.070 351.200,128.800 351.358,128.800 351.551 M141.443 358.969 C 141.797 359.890,142.743 360.068,142.508 359.170 C 142.397 358.747,142.063 358.400,141.766 358.400 C 141.463 358.400,141.321 358.650,141.443 358.969 M243.600 368.987 C 243.600 369.344,243.835 369.485,244.198 369.346 C 244.526 369.219,244.696 368.955,244.574 368.758 C 244.225 368.193,243.600 368.340,243.600 368.987 M230.800 375.833 C 230.800 376.182,231.014 376.395,231.275 376.308 C 232.017 376.061,232.140 375.200,231.433 375.200 C 231.085 375.200,230.800 375.485,230.800 375.833 M183.600 382.800 C 183.600 383.020,183.870 383.200,184.200 383.200 C 184.530 383.200,184.800 383.020,184.800 382.800 C 184.800 382.580,184.530 382.400,184.200 382.400 C 183.870 382.400,183.600 382.580,183.600 382.800 M189.200 385.800 C 189.474 386.130,189.878 386.400,190.098 386.400 C 190.321 386.400,190.278 386.135,190.000 385.800 C 189.726 385.470,189.322 385.200,189.102 385.200 C 188.879 385.200,188.922 385.465,189.200 385.800 M192.000 386.967 C 192.000 387.315,192.285 387.600,192.633 387.600 C 192.982 387.600,193.195 387.386,193.108 387.125 C 192.861 386.383,192.000 386.260,192.000 386.967 " stroke="none" fill="#747474" fill-rule="evenodd"></path><path id="path2" d="M117.100 16.739 C 116.986 17.177,116.398 17.580,115.661 17.728 C 114.683 17.923,114.471 18.129,114.672 18.688 C 114.812 19.080,114.790 19.276,114.621 19.124 C 114.185 18.731,112.661 20.252,112.978 20.765 C 113.140 21.026,113.001 21.099,112.621 20.953 C 112.279 20.822,111.985 20.869,111.968 21.057 C 111.628 24.656,112.713 27.078,113.414 24.285 C 113.716 23.083,117.966 20.015,119.959 19.560 C 123.930 18.654,127.847 21.442,130.801 27.280 C 131.947 29.543,133.193 31.846,133.571 32.397 C 133.949 32.949,134.760 34.390,135.374 35.600 C 135.987 36.810,136.739 38.084,137.045 38.431 C 137.350 38.779,137.600 39.336,137.600 39.670 C 137.600 40.003,137.960 40.602,138.400 41.000 C 138.840 41.398,139.200 41.991,139.200 42.318 C 139.200 42.644,139.705 43.741,140.321 44.756 C 140.938 45.770,141.680 47.185,141.970 47.900 C 142.260 48.615,142.655 49.200,142.849 49.200 C 143.042 49.200,143.200 49.390,143.200 49.622 C 143.200 50.359,144.805 53.600,145.171 53.600 C 145.364 53.600,145.717 54.095,145.956 54.700 C 146.429 55.900,147.656 58.095,148.301 58.896 C 148.525 59.173,148.830 59.973,148.980 60.672 C 149.129 61.372,149.498 62.149,149.800 62.400 C 150.505 62.985,152.000 65.848,152.000 66.612 C 152.000 66.936,152.137 67.200,152.305 67.200 C 152.622 67.200,152.991 67.828,154.361 70.700 C 154.807 71.635,155.358 72.400,155.586 72.400 C 155.814 72.400,156.000 72.747,156.000 73.171 C 156.000 73.596,156.270 74.213,156.600 74.543 C 156.930 74.873,157.200 75.516,157.200 75.971 C 157.200 76.427,157.359 76.800,157.554 76.800 C 157.749 76.800,158.204 77.422,158.565 78.183 C 158.926 78.944,159.377 79.662,159.566 79.779 C 159.756 79.896,160.028 80.459,160.172 81.029 C 160.315 81.600,160.866 82.753,161.396 83.593 C 161.926 84.433,163.206 86.774,164.241 88.796 C 165.276 90.818,166.365 92.565,166.661 92.679 C 166.958 92.793,167.200 93.212,167.200 93.610 C 167.200 94.731,167.643 95.621,168.069 95.357 C 168.281 95.227,168.555 95.506,168.679 95.979 C 168.970 97.092,170.158 96.888,170.328 95.696 C 170.414 95.094,170.249 94.800,169.828 94.800 C 169.472 94.800,169.200 94.462,169.200 94.020 C 169.200 93.591,168.885 93.056,168.500 92.832 C 167.942 92.507,167.921 92.416,168.400 92.384 C 168.805 92.357,168.744 92.244,168.214 92.036 C 167.695 91.833,167.418 91.334,167.399 90.565 C 167.383 89.875,167.173 89.441,166.886 89.500 C 166.608 89.557,166.400 89.172,166.400 88.600 C 166.400 88.050,166.040 87.240,165.600 86.800 C 165.160 86.360,164.800 85.593,164.800 85.096 C 164.800 84.599,164.433 83.963,163.984 83.683 C 163.536 83.403,163.264 83.020,163.380 82.832 C 163.496 82.645,163.233 82.397,162.796 82.283 C 162.179 82.122,162.000 81.736,162.000 80.571 C 162.000 79.744,161.882 79.185,161.737 79.330 C 161.427 79.640,160.400 78.870,160.400 78.327 C 160.400 78.121,160.625 78.088,160.900 78.253 C 161.257 78.467,161.247 78.364,160.866 77.894 C 160.572 77.532,160.439 77.060,160.571 76.846 C 160.704 76.633,160.449 76.343,160.006 76.202 C 159.563 76.061,159.200 75.620,159.200 75.222 C 159.200 74.824,158.930 74.274,158.600 74.000 C 158.270 73.726,158.000 73.261,158.000 72.967 C 158.000 72.672,157.623 72.080,157.161 71.650 C 156.644 71.168,156.308 70.336,156.283 69.477 C 156.256 68.507,156.086 68.146,155.722 68.285 C 155.428 68.398,155.200 68.208,155.200 67.850 C 155.200 67.501,154.770 67.107,154.244 66.975 C 153.368 66.756,153.299 66.564,153.424 64.720 C 153.500 63.612,153.452 62.815,153.317 62.949 C 152.820 63.446,152.068 62.319,152.245 61.343 C 152.384 60.576,152.232 60.281,151.614 60.120 C 151.159 60.001,150.800 59.575,150.800 59.153 C 150.800 58.664,150.517 58.400,149.992 58.400 C 149.349 58.400,149.221 58.196,149.366 57.401 C 149.509 56.609,149.351 56.353,148.604 56.165 C 147.785 55.960,147.691 55.752,147.882 54.571 C 148.046 53.561,147.941 53.152,147.471 52.972 C 147.123 52.838,146.636 52.115,146.388 51.365 C 146.141 50.614,145.772 50.000,145.569 50.000 C 145.366 50.000,145.200 49.590,145.200 49.089 C 145.200 48.588,144.828 47.859,144.374 47.470 C 143.830 47.005,143.591 46.393,143.674 45.681 C 143.769 44.861,143.634 44.613,143.112 44.654 C 142.307 44.716,141.852 43.580,142.169 42.300 C 142.292 41.805,142.289 41.625,142.163 41.900 C 141.783 42.727,141.302 42.469,140.860 41.200 C 140.630 40.540,140.252 40.000,140.021 40.000 C 139.789 40.000,139.600 39.560,139.600 39.023 C 139.600 38.485,139.226 37.783,138.768 37.463 C 138.311 37.142,137.971 36.547,138.014 36.140 C 138.163 34.728,138.003 34.313,137.400 34.545 C 137.015 34.692,136.789 34.529,136.769 34.087 C 136.708 32.709,136.459 32.002,135.806 31.348 C 135.438 30.981,135.225 30.348,135.331 29.940 C 135.448 29.493,135.314 29.200,134.992 29.200 C 134.699 29.200,134.188 28.657,133.857 27.993 C 133.525 27.330,133.392 26.872,133.561 26.976 C 133.729 27.080,133.867 26.920,133.867 26.621 C 133.867 26.321,133.627 26.168,133.333 26.281 C 132.999 26.409,132.800 26.189,132.800 25.689 C 132.800 25.230,132.462 24.805,132.000 24.684 C 131.258 24.490,130.934 23.190,131.163 21.330 C 131.195 21.072,131.009 20.729,130.749 20.568 C 130.424 20.368,130.382 20.452,130.615 20.838 C 130.904 21.318,130.852 21.318,130.259 20.836 C 129.876 20.526,129.663 20.014,129.783 19.699 C 129.918 19.347,129.693 19.045,129.202 18.916 C 128.761 18.801,128.400 18.552,128.400 18.364 C 128.400 18.175,127.854 17.738,127.187 17.393 C 126.520 17.048,126.080 16.594,126.211 16.383 C 126.356 16.148,124.684 16.000,121.870 16.000 C 117.755 16.000,117.274 16.075,117.100 16.739 M111.000 28.000 C 111.136 28.220,111.012 28.403,110.724 28.406 C 110.300 28.411,110.302 28.477,110.734 28.750 C 111.163 29.023,111.144 29.136,110.634 29.332 C 110.285 29.465,110.003 29.986,110.006 30.487 C 110.011 31.198,110.094 31.271,110.380 30.819 C 110.582 30.500,110.658 30.095,110.550 29.919 C 110.442 29.744,110.633 29.600,110.976 29.600 C 111.375 29.600,111.600 29.239,111.600 28.600 C 111.600 28.050,111.409 27.600,111.176 27.600 C 110.943 27.600,110.864 27.780,111.000 28.000 M110.000 35.151 C 110.000 35.564,109.741 36.117,109.424 36.380 C 108.754 36.936,109.029 38.000,109.843 38.000 C 110.237 38.000,110.400 37.472,110.400 36.200 C 110.400 35.210,110.310 34.400,110.200 34.400 C 110.090 34.400,110.000 34.738,110.000 35.151 M107.024 53.811 C 106.859 54.694,106.594 55.120,106.318 54.949 C 106.049 54.783,105.990 54.860,106.166 55.145 C 106.325 55.402,106.623 55.509,106.828 55.383 C 107.032 55.256,107.200 55.343,107.200 55.576 C 107.200 55.809,107.039 56.000,106.843 56.000 C 106.114 56.000,106.105 57.073,106.831 57.527 C 107.541 57.970,107.580 57.841,107.531 55.198 C 107.472 52.023,107.398 51.819,107.024 53.811 M105.100 63.645 C 104.212 64.146,104.192 65.435,105.067 65.770 C 106.044 66.145,106.548 65.440,106.145 64.260 C 105.866 63.443,105.666 63.325,105.100 63.645 M197.551 68.503 C 198.045 69.132,197.972 69.251,196.851 69.642 C 196.163 69.882,195.600 70.211,195.600 70.374 C 195.600 70.536,194.729 71.563,193.665 72.656 C 192.445 73.909,191.773 74.930,191.847 75.421 C 192.228 77.958,192.197 78.200,191.500 78.144 C 191.115 78.114,190.800 78.260,190.800 78.468 C 190.800 78.677,190.646 78.752,190.458 78.636 C 190.270 78.519,190.201 78.869,190.304 79.412 C 190.674 81.347,193.200 79.493,193.200 77.287 C 193.200 76.540,196.067 73.718,198.106 72.458 C 200.881 70.743,205.826 71.444,208.356 73.913 C 208.662 74.211,209.337 74.733,209.856 75.074 C 210.375 75.414,210.800 75.967,210.800 76.302 C 210.800 77.151,212.463 80.400,212.898 80.400 C 213.094 80.400,213.146 80.739,213.015 81.153 C 212.864 81.628,213.002 81.992,213.388 82.140 C 213.725 82.269,214.000 82.651,214.000 82.987 C 214.000 83.324,214.177 83.600,214.392 83.600 C 214.608 83.600,214.894 84.037,215.028 84.571 C 215.163 85.105,215.526 85.639,215.836 85.759 C 216.146 85.878,216.400 86.188,216.400 86.449 C 216.400 87.263,218.420 91.235,218.735 91.040 C 218.899 90.939,219.074 91.377,219.122 92.016 C 219.171 92.654,219.838 94.246,220.605 95.555 C 221.372 96.864,222.000 98.110,222.000 98.325 C 222.000 98.849,223.260 99.306,223.624 98.913 C 224.180 98.313,223.551 95.979,222.864 96.093 C 222.351 96.178,222.245 95.894,222.342 94.689 C 222.409 93.859,222.314 93.205,222.132 93.237 C 221.230 93.394,220.900 93.111,220.900 92.181 C 220.900 91.620,220.597 90.939,220.226 90.668 C 219.855 90.397,219.535 89.605,219.515 88.908 C 219.496 88.211,219.372 87.652,219.240 87.667 C 218.218 87.784,217.924 87.512,218.096 86.612 C 218.213 85.999,218.129 85.721,217.874 85.878 C 217.620 86.035,217.568 85.861,217.737 85.421 C 217.939 84.893,217.854 84.771,217.405 84.943 C 216.826 85.165,216.630 84.781,216.770 83.700 C 216.806 83.425,216.653 83.200,216.430 83.200 C 216.207 83.200,216.129 82.928,216.257 82.595 C 216.425 82.158,216.306 82.061,215.828 82.245 C 215.292 82.450,215.203 82.299,215.357 81.449 C 215.462 80.867,215.362 80.400,215.131 80.400 C 214.902 80.400,214.814 80.139,214.937 79.820 C 215.085 79.433,214.967 79.315,214.580 79.463 C 214.218 79.602,214.000 79.438,214.000 79.026 C 214.000 78.663,213.640 77.980,213.200 77.508 C 212.760 77.036,212.400 76.226,212.400 75.708 C 212.400 75.190,212.046 74.387,211.614 73.923 C 211.181 73.459,210.922 72.926,211.037 72.739 C 211.153 72.553,211.042 72.400,210.792 72.400 C 210.221 72.400,206.991 69.117,207.123 68.670 C 207.176 68.489,207.032 68.456,206.803 68.598 C 206.574 68.739,206.516 69.065,206.674 69.320 C 206.832 69.576,206.482 69.408,205.897 68.947 C 204.693 68.001,199.103 67.585,198.597 68.405 C 198.410 68.708,198.128 68.682,197.664 68.319 C 197.069 67.854,197.058 67.873,197.551 68.503 M103.466 73.533 C 103.540 73.826,103.600 74.135,103.600 74.220 C 103.600 74.305,103.870 74.271,104.200 74.145 C 104.530 74.018,104.800 73.642,104.800 73.308 C 104.800 72.833,104.678 72.803,104.239 73.168 C 103.930 73.424,103.600 73.491,103.504 73.317 C 103.409 73.143,103.392 73.240,103.466 73.533 M103.666 74.750 C 103.241 75.020,103.268 75.140,103.799 75.344 C 104.682 75.683,104.667 75.689,104.667 75.000 C 104.667 74.321,104.435 74.263,103.666 74.750 M189.600 81.428 C 189.600 81.769,189.432 81.944,189.228 81.817 C 189.023 81.691,188.725 81.798,188.566 82.055 C 188.385 82.348,188.450 82.416,188.738 82.238 C 189.142 81.989,189.370 82.435,189.260 83.262 C 189.241 83.406,189.490 83.626,189.813 83.750 C 190.207 83.901,190.400 83.716,190.400 83.187 C 190.400 82.754,190.670 82.400,191.000 82.400 C 192.069 82.400,191.693 80.982,190.600 80.892 C 189.928 80.836,189.600 81.012,189.600 81.428 M101.836 82.651 C 101.453 83.647,102.674 84.842,103.214 84.000 C 103.426 83.670,103.552 83.132,103.495 82.805 C 103.345 81.947,102.148 81.836,101.836 82.651 M188.000 84.024 C 188.000 84.257,187.789 84.317,187.532 84.158 C 187.229 83.970,187.144 84.078,187.292 84.463 C 187.421 84.799,187.199 85.258,186.781 85.519 C 186.369 85.776,186.106 86.312,186.187 86.731 C 186.330 87.477,185.069 88.936,184.646 88.513 C 184.224 88.091,184.772 90.085,185.230 90.636 C 185.687 91.187,186.582 91.018,186.229 90.447 C 186.128 90.284,186.485 89.638,187.023 89.013 C 187.560 88.387,188.001 87.679,188.002 87.438 C 188.004 87.197,188.280 86.472,188.617 85.826 C 189.243 84.625,189.149 83.600,188.413 83.600 C 188.186 83.600,188.000 83.791,188.000 84.024 M101.105 91.017 C 101.319 92.133,101.686 92.025,101.874 90.790 C 101.944 90.333,101.767 90.000,101.453 90.000 C 101.088 90.000,100.974 90.332,101.105 91.017 M292.176 91.387 C 291.749 91.710,290.911 91.980,290.314 91.987 C 289.647 91.995,289.063 92.308,288.800 92.800 C 288.565 93.240,288.108 93.600,287.786 93.600 C 287.464 93.600,287.200 93.768,287.200 93.973 C 287.200 94.178,286.840 94.460,286.400 94.600 C 285.960 94.740,285.600 95.112,285.600 95.427 C 285.600 95.953,285.354 96.044,283.600 96.162 C 283.270 96.185,282.995 96.562,282.990 97.002 C 282.983 97.501,282.727 97.780,282.306 97.747 C 281.935 97.718,281.646 97.808,281.663 97.947 C 281.872 99.619,281.539 100.442,280.700 100.325 C 280.018 100.230,279.638 100.525,279.130 101.542 C 278.378 103.048,276.583 104.240,276.233 103.465 C 276.118 103.209,276.063 103.360,276.112 103.800 C 276.173 104.359,275.929 104.638,275.300 104.728 C 274.600 104.827,274.400 105.117,274.400 106.028 C 274.400 107.032,274.243 107.205,273.300 107.232 C 272.695 107.249,272.425 107.354,272.700 107.465 C 273.491 107.784,273.281 108.800,272.424 108.800 C 271.997 108.800,271.534 108.983,271.396 109.207 C 271.258 109.430,270.973 109.507,270.762 109.377 C 270.552 109.247,270.406 109.289,270.437 109.470 C 270.656 110.728,270.327 111.600,269.633 111.600 C 269.212 111.600,268.775 111.825,268.664 112.100 C 268.511 112.477,268.351 112.452,268.014 112.000 C 267.637 111.495,267.585 111.527,267.683 112.200 C 267.752 112.672,267.595 112.959,267.300 112.900 C 267.025 112.845,266.800 112.991,266.800 113.224 C 266.800 113.457,266.589 113.517,266.332 113.358 C 266.019 113.165,265.947 113.285,266.114 113.720 C 266.272 114.131,266.030 114.634,265.457 115.085 C 264.958 115.478,264.323 116.160,264.045 116.600 C 263.662 117.206,263.592 117.230,263.757 116.700 C 263.877 116.315,263.801 116.000,263.587 116.000 C 263.374 116.000,263.200 116.379,263.200 116.843 C 263.200 117.453,263.023 117.617,262.555 117.438 C 262.135 117.277,261.978 117.367,262.103 117.695 C 262.405 118.489,261.690 120.000,261.013 120.000 C 260.667 120.000,260.400 120.348,260.400 120.800 C 260.400 121.549,259.870 121.762,258.132 121.713 C 257.874 121.705,257.745 121.913,257.845 122.173 C 257.945 122.434,257.661 123.069,257.213 123.585 C 256.766 124.100,256.400 124.752,256.400 125.033 C 256.400 125.314,256.033 125.602,255.584 125.672 C 255.135 125.742,254.763 125.980,254.756 126.200 C 254.749 126.420,254.486 126.744,254.172 126.920 C 253.857 127.096,253.600 127.501,253.600 127.820 C 253.600 128.139,253.240 128.400,252.800 128.400 C 252.267 128.400,252.000 128.667,252.000 129.200 C 252.000 129.733,251.733 130.000,251.200 130.000 C 250.760 130.000,250.400 130.191,250.400 130.424 C 250.400 130.657,250.218 130.735,249.995 130.597 C 249.770 130.458,249.482 130.892,249.345 131.573 C 249.176 132.419,248.867 132.800,248.350 132.800 C 247.938 132.800,247.600 133.070,247.600 133.400 C 247.600 133.948,246.923 134.181,245.746 134.040 C 245.496 134.010,245.190 134.250,245.066 134.573 C 244.905 134.992,245.035 135.090,245.520 134.917 C 245.894 134.784,245.705 135.076,245.100 135.567 C 244.457 136.088,244.000 136.854,244.000 137.411 C 244.000 138.063,242.956 139.443,240.700 141.774 C 232.460 150.289,195.818 187.165,134.883 248.267 C 68.671 314.661,67.209 316.184,69.650 316.206 C 70.008 316.209,70.818 316.471,71.450 316.788 C 73.805 317.967,78.218 320.566,78.729 321.074 C 79.019 321.363,79.582 321.600,79.980 321.600 C 80.377 321.600,80.926 321.870,81.200 322.200 C 81.474 322.530,81.933 322.800,82.220 322.800 C 82.508 322.800,82.981 323.036,83.271 323.326 C 83.562 323.615,84.880 324.359,86.200 324.979 C 87.520 325.600,88.690 326.218,88.800 326.354 C 88.910 326.489,89.990 327.118,91.200 327.752 C 92.410 328.386,93.580 329.121,93.800 329.386 C 94.020 329.651,94.650 329.981,95.200 330.119 C 95.750 330.258,97.190 330.995,98.400 331.757 C 99.610 332.520,101.860 333.803,103.400 334.609 C 104.940 335.415,106.861 336.463,107.668 336.937 C 109.694 338.128,113.103 340.005,114.900 340.920 C 115.725 341.340,116.400 341.825,116.400 341.998 C 116.400 342.172,116.843 342.425,117.385 342.561 C 118.305 342.791,123.157 345.451,123.600 345.967 C 123.710 346.095,124.790 346.706,126.000 347.323 C 127.210 347.941,129.100 348.944,130.200 349.551 C 131.300 350.158,133.010 351.082,134.000 351.603 C 134.990 352.125,136.698 353.148,137.795 353.876 C 138.892 354.604,140.085 355.200,140.446 355.200 C 140.807 355.200,141.326 355.470,141.600 355.800 C 141.874 356.130,142.322 356.400,142.595 356.400 C 142.868 356.400,143.521 356.734,144.046 357.143 C 144.571 357.552,146.485 358.658,148.300 359.602 C 150.115 360.546,151.600 361.458,151.600 361.628 C 151.600 361.797,152.152 362.058,152.827 362.206 C 153.502 362.354,154.147 362.717,154.260 363.013 C 154.374 363.309,154.988 363.666,155.625 363.806 C 156.262 363.945,157.971 364.856,159.423 365.830 C 160.875 366.803,162.242 367.600,162.462 367.600 C 162.681 367.600,164.126 368.365,165.674 369.300 C 167.221 370.235,168.963 371.234,169.544 371.521 C 170.125 371.807,170.870 372.201,171.200 372.396 C 171.530 372.590,172.790 373.254,174.000 373.871 C 175.210 374.487,176.290 375.105,176.400 375.243 C 176.510 375.382,177.527 375.963,178.660 376.534 C 179.792 377.105,181.509 378.106,182.475 378.757 C 183.440 379.409,184.712 380.063,185.301 380.211 C 185.889 380.359,187.232 381.092,188.284 381.840 C 189.336 382.588,190.588 383.200,191.065 383.200 C 191.543 383.200,191.997 383.390,192.074 383.623 C 192.324 384.371,198.437 385.478,201.810 385.386 C 206.609 385.255,209.853 384.491,213.153 382.712 C 214.778 381.837,216.938 380.671,217.953 380.122 C 218.969 379.573,221.690 378.124,224.000 376.904 C 226.310 375.683,228.470 374.463,228.800 374.191 C 229.505 373.611,233.274 371.600,233.657 371.600 C 233.801 371.600,234.883 370.945,236.060 370.145 C 237.237 369.345,238.920 368.345,239.800 367.923 C 245.770 365.059,245.779 364.997,241.000 359.814 C 239.020 357.666,236.706 354.894,235.859 353.654 C 235.011 352.415,234.101 351.220,233.837 351.000 C 233.573 350.780,232.736 349.546,231.978 348.257 C 231.220 346.968,230.288 345.438,229.906 344.857 C 229.524 344.276,229.021 343.363,228.789 342.828 C 228.556 342.294,227.634 340.406,226.740 338.633 C 223.863 332.928,220.891 323.294,220.004 316.800 C 219.749 314.930,219.383 312.230,219.191 310.800 C 218.741 307.456,218.740 298.156,219.189 294.800 C 220.164 287.511,220.496 285.556,221.231 282.800 C 222.541 277.892,223.683 274.396,224.053 274.167 C 224.244 274.049,224.400 273.562,224.400 273.084 C 224.400 271.934,228.507 263.285,230.613 260.000 C 231.530 258.570,232.503 256.978,232.775 256.461 C 235.003 252.233,247.140 239.281,251.875 236.078 C 253.237 235.157,254.464 234.220,254.602 233.996 C 254.741 233.772,255.586 233.186,256.481 232.694 C 257.376 232.202,258.399 231.616,258.754 231.392 C 259.109 231.167,260.120 230.526,261.000 229.966 C 263.372 228.457,270.741 224.966,272.803 224.375 C 273.791 224.092,274.780 223.735,275.000 223.582 C 275.220 223.430,276.750 222.906,278.400 222.419 C 280.050 221.933,282.210 221.286,283.200 220.982 C 284.190 220.678,285.990 220.315,287.200 220.174 C 288.410 220.034,290.909 219.668,292.752 219.360 C 298.086 218.469,308.724 218.617,315.266 219.672 C 321.992 220.757,322.089 220.716,321.917 216.837 C 321.835 214.988,321.651 214.230,321.300 214.300 C 320.715 214.417,320.719 214.459,320.797 208.100 C 320.855 203.391,320.825 203.200,320.029 203.200 C 319.246 203.200,319.200 202.979,319.200 199.187 C 319.200 195.927,319.083 195.130,318.578 194.936 C 318.236 194.805,317.986 194.316,318.022 193.849 C 318.281 190.534,317.977 188.447,317.200 188.200 C 316.560 187.997,316.400 187.595,316.400 186.186 C 316.400 184.678,316.501 184.462,317.100 184.680 C 317.767 184.923,317.767 184.898,317.100 184.136 C 316.564 183.524,316.400 182.620,316.400 180.272 C 316.400 177.786,316.268 177.124,315.700 176.769 C 315.116 176.404,315.008 175.768,315.046 172.914 C 315.087 169.893,315.006 169.474,314.346 169.302 C 313.693 169.131,313.600 168.690,313.600 165.767 C 313.600 162.951,313.486 162.367,312.874 162.040 C 312.232 161.696,312.158 161.148,312.236 157.326 C 312.324 153.056,311.839 149.600,311.153 149.600 C 310.959 149.600,310.800 148.263,310.800 146.629 C 310.800 144.630,310.619 143.476,310.246 143.103 C 309.891 142.749,309.637 141.343,309.540 139.206 C 309.445 137.116,309.211 135.804,308.916 135.705 C 308.657 135.619,308.555 135.260,308.690 134.909 C 308.830 134.544,308.769 134.372,308.548 134.509 C 308.335 134.640,308.160 134.310,308.160 133.774 C 308.160 133.188,308.392 132.800,308.742 132.800 C 309.222 132.800,309.208 132.672,308.662 132.069 C 308.160 131.514,308.000 130.550,308.000 128.083 C 308.000 125.228,307.901 124.775,307.193 124.396 C 306.469 124.009,306.406 123.678,306.589 121.175 C 306.767 118.737,306.692 118.300,305.996 117.704 C 305.307 117.114,305.200 116.521,305.200 113.287 C 305.200 111.218,305.042 109.651,304.845 109.772 C 304.310 110.103,303.553 108.989,303.827 108.273 C 303.960 107.928,304.355 107.590,304.705 107.523 C 305.275 107.413,305.270 107.327,304.654 106.711 C 304.113 106.170,303.955 105.249,303.916 102.409 C 303.875 99.394,303.765 98.812,303.251 98.898 C 302.827 98.968,302.603 98.627,302.534 97.807 C 302.479 97.151,302.122 96.386,301.740 96.107 C 301.359 95.828,301.176 95.600,301.333 95.600 C 302.124 95.600,300.179 93.615,299.171 93.394 C 298.527 93.252,298.000 92.881,298.000 92.568 C 298.000 92.136,297.380 92.000,295.400 92.000 C 293.023 92.000,292.053 91.568,293.300 91.065 C 293.575 90.954,293.609 90.849,293.376 90.832 C 293.144 90.814,292.604 91.064,292.176 91.387 M182.410 93.907 C 181.645 94.706,181.221 95.234,181.468 95.082 C 181.714 94.929,182.023 95.083,182.154 95.423 C 182.284 95.763,182.228 95.941,182.030 95.818 C 181.831 95.695,181.577 95.821,181.465 96.098 C 181.310 96.478,181.153 96.455,180.815 96.000 C 180.473 95.540,180.414 95.854,180.561 97.343 C 180.667 98.412,180.832 99.365,180.929 99.462 C 181.253 99.787,182.400 98.351,182.400 97.620 C 182.400 97.223,182.670 96.674,183.000 96.400 C 183.330 96.126,183.600 95.558,183.600 95.138 C 183.600 94.719,183.870 94.271,184.200 94.145 C 184.923 93.867,185.009 92.389,184.300 92.427 C 184.025 92.443,183.174 93.108,182.410 93.907 M170.400 98.562 C 170.400 99.342,170.910 99.627,171.573 99.217 C 171.987 98.961,171.914 98.782,171.254 98.429 C 170.561 98.058,170.400 98.083,170.400 98.562 M179.223 99.585 C 178.913 99.777,178.778 100.274,178.905 100.760 C 179.026 101.222,178.985 101.514,178.814 101.409 C 178.643 101.303,178.083 102.100,177.570 103.181 C 177.056 104.262,176.490 105.056,176.312 104.945 C 176.133 104.835,176.108 104.549,176.255 104.311 C 176.417 104.049,176.337 103.992,176.055 104.166 C 175.798 104.325,175.643 104.578,175.712 104.728 C 176.825 107.146,178.000 108.107,178.000 106.600 C 178.000 106.270,178.270 106.000,178.600 106.000 C 178.930 106.000,179.170 105.865,179.133 105.700 C 178.995 105.088,179.700 102.400,179.998 102.400 C 180.168 102.400,180.408 102.012,180.532 101.537 C 180.823 100.427,179.955 99.133,179.223 99.585 M223.867 99.467 C 223.385 99.948,223.588 101.492,224.200 102.000 C 224.530 102.274,224.800 102.733,224.800 103.020 C 224.800 103.308,225.073 103.816,225.407 104.150 C 225.741 104.484,225.973 104.902,225.922 105.079 C 225.726 105.763,226.826 107.125,227.495 107.026 C 228.461 106.882,228.207 104.900,227.064 103.668 C 226.589 103.155,226.245 102.660,226.300 102.568 C 226.558 102.135,226.358 101.578,226.020 101.788 C 225.706 101.982,224.515 100.421,224.732 100.100 C 225.159 99.469,224.411 98.922,223.867 99.467 M99.260 101.071 C 98.962 101.391,98.837 101.771,98.981 101.915 C 99.126 102.059,99.431 101.912,99.659 101.588 C 100.003 101.103,100.036 101.122,99.850 101.700 C 99.726 102.085,99.799 102.400,100.013 102.400 C 100.468 102.400,100.513 101.594,100.094 100.944 C 99.882 100.616,99.648 100.652,99.260 101.071 M228.337 107.611 C 227.513 108.092,227.824 109.600,228.747 109.600 C 229.206 109.600,229.400 109.244,229.400 108.400 C 229.400 107.092,229.323 107.036,228.337 107.611 M98.846 108.100 C 98.821 108.485,98.813 108.928,98.830 109.084 C 98.846 109.241,98.531 109.498,98.130 109.656 C 97.444 109.926,97.443 109.945,98.113 109.972 C 98.926 110.004,99.355 109.184,99.080 108.123 C 98.908 107.460,98.889 107.458,98.846 108.100 M229.200 111.157 C 229.200 111.817,229.458 112.413,229.800 112.545 C 230.130 112.671,230.400 113.134,230.400 113.573 C 230.400 114.013,230.721 114.543,231.112 114.753 C 231.504 114.963,231.855 115.529,231.891 116.012 C 231.927 116.495,232.232 117.194,232.569 117.566 C 232.906 117.938,233.237 118.611,233.306 119.062 C 233.375 119.514,233.739 120.353,234.116 120.927 C 234.492 121.502,234.800 122.171,234.800 122.415 C 234.800 122.659,235.115 122.794,235.500 122.714 C 236.498 122.507,236.287 119.727,235.195 118.710 C 234.748 118.293,234.505 117.738,234.655 117.476 C 234.805 117.214,234.781 117.133,234.601 117.297 C 234.153 117.703,233.203 116.857,233.434 116.257 C 233.536 115.990,233.255 115.381,232.810 114.903 C 232.364 114.425,232.000 113.595,232.000 113.060 C 232.000 112.524,231.730 111.982,231.400 111.855 C 231.070 111.729,230.800 111.369,230.800 111.055 C 230.800 110.580,230.012 110.000,229.367 110.000 C 229.275 110.000,229.200 110.521,229.200 111.157 M98.276 110.990 C 97.775 111.359,97.693 111.611,98.011 111.807 C 98.545 112.137,99.358 111.460,99.145 110.863 C 99.055 110.611,98.725 110.659,98.276 110.990 M96.400 116.567 C 96.400 116.879,96.279 117.449,96.132 117.833 C 95.957 118.289,96.017 118.437,96.304 118.259 C 96.547 118.109,96.870 118.189,97.022 118.436 C 97.222 118.759,97.388 118.743,97.613 118.379 C 98.037 117.694,97.628 116.737,97.058 117.079 C 96.806 117.230,96.847 117.049,97.149 116.677 C 97.622 116.094,97.608 116.000,97.049 116.000 C 96.692 116.000,96.400 116.255,96.400 116.567 M236.400 123.973 C 236.400 125.298,238.137 128.290,238.800 128.106 C 239.284 127.971,239.295 128.012,238.859 128.319 C 238.179 128.795,238.916 130.400,239.814 130.400 C 240.488 130.400,240.612 128.978,239.973 128.583 C 239.738 128.438,239.642 128.067,239.760 127.760 C 239.878 127.452,239.813 127.200,239.614 127.200 C 239.416 127.200,239.146 126.859,239.014 126.443 C 238.882 126.027,238.414 125.592,237.975 125.478 C 237.536 125.363,237.204 125.118,237.236 124.934 C 237.268 124.751,237.273 124.285,237.247 123.900 C 237.183 122.942,236.400 123.009,236.400 123.973 M95.060 126.587 C 94.936 126.910,95.010 127.283,95.224 127.415 C 95.438 127.547,95.509 127.823,95.383 128.028 C 95.256 128.232,95.433 128.400,95.776 128.400 C 96.203 128.400,96.400 128.020,96.400 127.200 C 96.400 125.933,95.474 125.509,95.060 126.587 M93.747 135.914 C 93.889 136.144,93.779 136.423,93.502 136.535 C 93.122 136.690,93.146 136.842,93.600 137.163 C 94.007 137.451,94.039 137.590,93.700 137.594 C 93.425 137.597,93.200 137.870,93.200 138.200 C 93.200 138.530,93.391 138.800,93.624 138.800 C 93.857 138.800,93.937 138.622,93.803 138.405 C 93.660 138.174,93.829 138.113,94.209 138.259 C 94.742 138.463,94.835 138.270,94.729 137.185 C 94.658 136.457,94.350 135.779,94.044 135.679 C 93.730 135.576,93.601 135.678,93.747 135.914 M93.200 143.400 C 93.200 143.730,93.039 144.000,92.843 144.000 C 92.646 144.000,92.390 144.250,92.273 144.555 C 92.123 144.944,92.290 145.049,92.830 144.908 C 93.501 144.733,94.023 142.800,93.400 142.800 C 93.290 142.800,93.200 143.070,93.200 143.400 M91.100 154.557 C 90.196 155.243,90.217 155.429,91.200 155.429 C 91.701 155.429,92.000 155.162,92.000 154.714 C 92.000 153.873,92.001 153.873,91.100 154.557 M88.546 170.998 C 88.419 171.326,88.155 171.496,87.958 171.374 C 87.761 171.252,87.600 171.343,87.600 171.576 C 87.600 171.809,87.960 172.000,88.400 172.000 C 88.933 172.000,89.200 171.733,89.200 171.200 C 89.200 170.256,88.869 170.154,88.546 170.998 M85.429 189.829 C 84.700 190.557,84.598 190.972,85.245 190.572 C 85.489 190.421,85.848 190.546,86.041 190.849 C 86.284 191.231,86.367 191.063,86.309 190.300 C 86.211 189.009,86.235 189.022,85.429 189.829 M81.278 216.882 C 80.392 217.768,80.661 219.702,81.600 219.200 C 82.425 218.759,82.626 217.776,82.072 216.902 C 81.827 216.516,81.648 216.512,81.278 216.882 M75.680 251.680 C 75.016 252.344,75.079 253.067,75.800 253.067 C 76.162 253.067,76.400 252.696,76.400 252.133 C 76.400 251.062,76.337 251.023,75.680 251.680 M72.604 270.393 C 72.466 270.617,72.554 270.800,72.800 270.800 C 73.046 270.800,73.136 270.980,73.000 271.200 C 72.864 271.420,72.943 271.600,73.176 271.600 C 73.699 271.600,73.738 270.533,73.228 270.217 C 73.023 270.091,72.742 270.170,72.604 270.393 " stroke="none" fill="#fbc832" fill-rule="evenodd"></path><path id="path3" d="M139.600 39.553 C 139.600 39.748,139.947 39.997,140.370 40.108 C 140.910 40.249,141.077 40.144,140.927 39.755 C 140.695 39.149,139.600 38.983,139.600 39.553 M107.769 45.783 C 107.633 46.323,107.615 46.998,107.729 47.283 C 107.843 47.567,107.951 47.384,107.968 46.876 C 107.986 46.368,108.180 46.064,108.400 46.200 C 108.620 46.336,108.800 46.077,108.800 45.624 C 108.800 44.478,108.068 44.591,107.769 45.783 M154.075 65.448 C 154.447 65.558,154.842 65.953,154.952 66.325 C 155.099 66.814,155.132 66.781,155.072 66.205 C 155.025 65.738,154.662 65.375,154.195 65.328 C 153.619 65.268,153.586 65.301,154.075 65.448 M210.005 71.609 C 210.238 72.044,210.596 72.400,210.802 72.400 C 211.353 72.400,210.833 71.298,210.160 71.040 C 209.696 70.862,209.665 70.974,210.005 71.609 M293.298 91.061 C 292.511 91.385,293.139 92.000,294.257 92.000 C 294.887 92.000,295.204 91.812,295.100 91.500 C 294.916 90.947,294.073 90.742,293.298 91.061 M298.302 92.241 C 298.579 92.366,298.703 92.633,298.579 92.834 C 298.455 93.035,298.648 93.200,299.010 93.200 C 299.913 93.200,299.517 92.222,298.567 92.107 C 298.145 92.056,298.026 92.116,298.302 92.241 M300.390 93.463 C 300.616 93.575,300.800 93.911,300.800 94.210 C 300.800 94.508,300.978 94.863,301.195 94.997 C 301.445 95.151,301.468 94.912,301.256 94.341 C 301.073 93.846,300.711 93.400,300.452 93.351 C 300.192 93.301,300.165 93.352,300.390 93.463 M222.492 95.275 C 222.691 95.873,223.600 96.202,223.600 95.676 C 223.600 95.461,223.315 95.176,222.967 95.043 C 222.577 94.893,222.394 94.982,222.492 95.275 M170.400 96.953 C 170.400 97.258,170.737 97.595,171.149 97.703 C 171.726 97.853,171.853 97.726,171.703 97.149 C 171.477 96.286,170.400 96.124,170.400 96.953 M302.656 97.878 C 302.205 98.328,302.381 98.800,303.000 98.800 C 303.330 98.800,303.600 98.631,303.600 98.424 C 303.600 97.919,302.975 97.558,302.656 97.878 M99.691 98.674 C 98.921 100.043,99.017 101.155,99.835 100.337 C 100.184 99.988,100.405 99.274,100.326 98.751 L 100.182 97.800 99.691 98.674 M179.425 98.772 C 178.755 99.513,178.760 99.536,179.563 99.326 C 180.023 99.205,180.400 98.858,180.400 98.553 C 180.400 97.821,180.257 97.854,179.425 98.772 M304.255 108.200 C 304.115 108.565,304.255 108.800,304.613 108.800 C 304.936 108.800,305.200 108.530,305.200 108.200 C 305.200 107.870,305.039 107.600,304.843 107.600 C 304.646 107.600,304.382 107.870,304.255 108.200 M175.200 111.317 C 174.543 111.648,173.501 113.190,172.165 115.810 C 171.046 118.005,169.381 121.195,168.465 122.900 C 164.413 130.444,161.024 136.860,157.744 143.200 C 157.004 144.630,155.061 148.320,153.427 151.400 C 151.792 154.480,149.840 158.170,149.088 159.600 C 148.336 161.030,146.632 164.270,145.302 166.800 C 143.971 169.330,142.564 172.030,142.174 172.800 C 141.784 173.570,141.318 174.470,141.138 174.800 C 140.557 175.867,139.373 178.107,137.015 182.600 C 135.745 185.020,133.760 188.800,132.604 191.000 C 131.448 193.200,129.465 196.890,128.198 199.200 C 125.400 204.297,122.191 210.371,119.322 216.000 C 118.145 218.310,117.025 220.470,116.833 220.800 C 116.642 221.130,116.282 221.850,116.033 222.400 C 115.784 222.950,114.878 224.660,114.019 226.200 C 113.160 227.740,111.898 230.080,111.215 231.400 C 110.532 232.720,108.935 235.780,107.665 238.200 C 102.360 248.311,100.118 252.542,98.713 255.097 C 97.895 256.584,97.034 258.250,96.801 258.800 C 96.166 260.295,96.093 260.436,94.825 262.600 C 94.180 263.700,93.641 264.915,93.627 265.300 C 93.612 265.685,93.457 266.000,93.283 266.000 C 93.108 266.000,91.742 268.385,90.248 271.300 C 86.537 278.538,84.661 282.052,82.573 285.681 C 81.598 287.376,80.800 288.880,80.800 289.023 C 80.800 289.167,80.260 290.084,79.600 291.062 C 78.940 292.040,78.399 292.966,78.397 293.120 C 78.396 293.274,77.598 294.660,76.624 296.200 C 75.649 297.740,74.303 299.872,73.631 300.938 C 72.960 302.004,72.223 303.571,71.995 304.420 C 71.468 306.375,70.666 307.184,69.507 306.930 C 68.780 306.770,68.719 306.815,69.200 307.159 C 69.641 307.475,69.662 307.589,69.276 307.594 C 68.988 307.597,68.864 307.780,69.000 308.000 C 69.144 308.233,68.737 308.400,68.024 308.400 L 66.800 308.400 66.800 312.034 L 66.800 315.668 67.700 314.594 C 68.195 314.003,69.050 313.140,69.600 312.676 C 71.658 310.940,208.353 173.990,209.162 172.853 L 210.006 171.668 209.003 170.476 C 208.451 169.821,208.000 169.094,208.000 168.862 C 208.000 168.630,207.766 168.296,207.480 168.120 C 206.841 167.727,204.204 163.154,200.490 156.000 C 196.971 149.222,195.041 145.576,191.506 139.026 C 189.967 136.174,188.578 133.561,188.421 133.220 C 187.860 132.003,186.658 129.736,184.273 125.400 C 182.942 122.980,180.931 119.183,179.805 116.962 C 176.900 111.234,176.454 110.687,175.200 111.317 M259.061 120.890 C 258.918 121.436,259.048 121.611,259.527 121.519 C 260.360 121.358,260.642 120.133,259.846 120.133 C 259.523 120.133,259.169 120.474,259.061 120.890 M307.056 123.478 C 306.605 123.928,306.781 124.400,307.400 124.400 C 307.730 124.400,308.000 124.231,308.000 124.024 C 308.000 123.519,307.375 123.158,307.056 123.478 M254.900 124.772 C 254.955 124.976,254.640 125.426,254.200 125.771 C 253.464 126.348,253.511 126.353,254.787 125.839 C 256.386 125.194,256.853 124.400,255.633 124.400 C 255.175 124.400,254.845 124.567,254.900 124.772 M252.041 127.960 C 250.625 129.344,250.573 129.467,251.400 129.467 C 251.730 129.467,252.000 129.227,252.000 128.933 C 252.000 128.640,252.281 128.400,252.624 128.400 C 252.967 128.400,253.145 128.235,253.021 128.034 C 252.897 127.833,253.021 127.588,253.298 127.489 C 253.574 127.390,253.683 127.183,253.541 127.029 C 253.398 126.874,252.723 127.293,252.041 127.960 M240.800 130.524 C 240.800 130.849,241.083 131.223,241.429 131.356 C 241.868 131.524,242.019 131.396,241.929 130.932 C 241.765 130.085,240.800 129.737,240.800 130.524 M242.000 133.324 C 242.000 133.644,242.341 133.996,242.757 134.105 C 243.293 134.245,243.487 134.112,243.420 133.651 C 243.300 132.831,242.000 132.531,242.000 133.324 M246.384 133.630 C 245.976 134.392,246.009 134.423,246.781 134.010 C 247.244 133.763,247.517 133.389,247.388 133.180 C 247.046 132.628,246.880 132.703,246.384 133.630 M309.600 141.757 C 309.600 142.064,309.870 142.418,310.200 142.545 C 310.608 142.701,310.800 142.523,310.800 141.987 C 310.800 141.554,310.530 141.200,310.200 141.200 C 309.870 141.200,309.600 141.451,309.600 141.757 M312.400 159.271 C 312.400 160.099,312.672 160.927,313.044 161.237 C 313.622 161.716,313.667 161.613,313.483 160.244 C 313.195 158.107,312.400 157.393,312.400 159.271 M89.700 162.265 C 89.425 162.376,89.214 162.767,89.232 163.133 C 89.251 163.553,89.338 163.614,89.466 163.298 C 89.577 163.021,89.833 162.897,90.034 163.021 C 90.235 163.145,90.400 162.967,90.400 162.624 C 90.400 162.281,90.355 162.014,90.300 162.032 C 90.245 162.049,89.975 162.154,89.700 162.265 M315.467 175.067 C 315.004 175.529,315.177 176.306,315.795 176.543 C 316.215 176.704,316.356 176.543,316.272 175.996 C 316.129 175.057,315.826 174.708,315.467 175.067 M86.678 180.655 C 86.525 180.808,86.400 181.366,86.400 181.895 C 86.400 182.766,86.459 182.798,87.023 182.234 C 87.433 181.824,87.528 181.400,87.301 180.994 C 87.111 180.655,86.831 180.503,86.678 180.655 M316.400 185.824 C 316.400 186.410,316.572 186.741,316.803 186.598 C 317.025 186.461,317.390 186.765,317.614 187.274 C 317.967 188.077,317.993 188.020,317.811 186.850 C 317.695 186.108,317.600 185.343,317.600 185.150 C 317.600 184.958,317.330 184.800,317.000 184.800 C 316.623 184.800,316.400 185.180,316.400 185.824 M318.000 194.200 C 318.000 194.457,318.240 194.667,318.533 194.667 C 318.827 194.667,319.067 194.457,319.067 194.200 C 319.067 193.943,318.827 193.733,318.533 193.733 C 318.240 193.733,318.000 193.943,318.000 194.200 M319.200 201.304 C 319.200 202.370,319.392 202.757,320.000 202.916 C 320.593 203.071,320.800 202.928,320.800 202.363 C 320.800 201.943,320.609 201.600,320.376 201.600 C 320.143 201.600,320.051 201.440,320.172 201.245 C 320.293 201.050,320.123 200.668,319.796 200.396 C 319.287 199.975,319.200 200.108,319.200 201.304 M82.395 207.700 C 82.392 207.975,82.296 208.650,82.183 209.200 C 81.984 210.167,81.990 210.171,82.376 209.300 C 82.595 208.805,82.960 208.400,83.187 208.400 C 83.414 208.400,83.600 208.130,83.600 207.800 C 83.600 207.470,83.330 207.200,83.000 207.200 C 82.670 207.200,82.398 207.425,82.395 207.700 M320.800 212.013 C 320.800 212.446,321.070 212.800,321.400 212.800 C 321.730 212.800,322.000 212.549,322.000 212.243 C 322.000 211.936,321.730 211.582,321.400 211.455 C 320.992 211.299,320.800 211.477,320.800 212.013 M297.300 219.087 C 297.905 219.178,298.895 219.178,299.500 219.087 C 300.105 218.995,299.610 218.920,298.400 218.920 C 297.190 218.920,296.695 218.995,297.300 219.087 M306.500 219.087 C 307.105 219.178,308.095 219.178,308.700 219.087 C 309.305 218.995,308.810 218.920,307.600 218.920 C 306.390 218.920,305.895 218.995,306.500 219.087 M79.389 225.251 C 79.243 225.915,79.231 226.564,79.362 226.695 C 79.493 226.826,79.600 226.552,79.600 226.087 C 79.600 225.621,79.890 225.078,80.244 224.879 C 80.816 224.559,80.819 224.493,80.271 224.282 C 79.825 224.112,79.580 224.381,79.389 225.251 M78.440 233.700 C 78.077 234.676,78.273 235.600,78.843 235.600 C 79.039 235.600,79.200 234.970,79.200 234.200 C 79.200 232.590,78.921 232.406,78.440 233.700 M244.378 242.700 L 243.000 244.200 244.500 242.822 C 245.896 241.538,246.184 241.200,245.878 241.200 C 245.812 241.200,245.137 241.875,244.378 242.700 M71.600 277.613 C 71.067 277.957,71.067 278.043,71.600 278.387 C 71.987 278.637,72.247 278.637,72.333 278.387 C 72.598 277.620,72.215 277.216,71.600 277.613 M69.949 288.500 C 69.698 288.991,69.789 290.330,70.062 290.162 C 70.255 290.042,70.297 289.757,70.155 289.528 C 70.014 289.298,70.146 288.953,70.449 288.761 C 70.848 288.509,70.862 288.411,70.500 288.406 C 70.225 288.403,69.977 288.445,69.949 288.500 M218.955 303.000 C 218.956 305.860,219.020 306.978,219.097 305.483 C 219.174 303.989,219.174 301.649,219.096 300.283 C 219.018 298.918,218.955 300.140,218.955 303.000 M67.423 304.489 C 66.697 305.524,66.615 306.638,67.235 307.022 C 67.954 307.466,68.540 306.579,68.075 305.749 C 67.813 305.281,67.804 304.767,68.048 304.310 C 68.585 303.307,68.167 303.427,67.423 304.489 M71.700 319.087 C 70.893 319.377,71.127 320.400,72.000 320.400 C 72.440 320.400,72.800 320.141,72.800 319.824 C 72.800 319.128,72.377 318.845,71.700 319.087 M74.000 321.200 C 74.000 321.802,74.209 322.018,74.700 321.924 C 75.085 321.850,75.400 321.524,75.400 321.200 C 75.400 320.876,75.085 320.550,74.700 320.476 C 74.209 320.382,74.000 320.598,74.000 321.200 M83.676 326.700 C 83.750 327.085,84.076 327.400,84.400 327.400 C 84.724 327.400,85.050 327.085,85.124 326.700 C 85.218 326.209,85.002 326.000,84.400 326.000 C 83.798 326.000,83.582 326.209,83.676 326.700 M86.400 327.991 C 86.400 328.165,86.760 328.401,87.200 328.516 C 87.640 328.631,88.000 328.583,88.000 328.409 C 88.000 328.235,87.640 327.999,87.200 327.884 C 86.760 327.769,86.400 327.817,86.400 327.991 M93.600 332.157 C 93.600 332.762,94.472 333.219,95.533 333.168 C 95.948 333.149,96.012 333.061,95.700 332.935 C 95.425 332.824,95.200 332.478,95.200 332.167 C 95.200 331.855,94.840 331.600,94.400 331.600 C 93.960 331.600,93.600 331.851,93.600 332.157 M96.400 333.120 C 96.400 333.624,97.306 334.400,97.894 334.400 C 98.304 334.400,98.329 334.214,98.000 333.600 C 97.586 332.826,96.400 332.470,96.400 333.120 M99.105 335.281 C 99.214 335.695,99.655 335.995,100.147 335.988 C 100.954 335.976,100.959 335.952,100.252 335.541 C 99.654 335.194,99.613 335.039,100.047 334.771 C 100.438 334.529,100.356 334.453,99.754 334.498 C 99.158 334.543,98.971 334.769,99.105 335.281 M101.887 336.682 C 101.996 336.967,102.421 337.200,102.830 337.200 C 103.312 337.200,103.497 336.998,103.355 336.627 C 103.234 336.312,102.810 336.079,102.412 336.109 C 101.996 336.140,101.772 336.384,101.887 336.682 M106.400 339.400 C 106.674 339.730,107.140 340.000,107.436 340.000 C 107.751 340.000,107.879 339.750,107.745 339.400 C 107.618 339.070,107.152 338.800,106.708 338.800 C 106.037 338.800,105.985 338.900,106.400 339.400 M109.600 341.000 C 109.181 341.505,109.252 341.595,110.051 341.568 C 110.573 341.551,110.774 341.446,110.498 341.334 C 110.221 341.223,110.097 340.967,110.221 340.766 C 110.584 340.179,110.144 340.345,109.600 341.000 M111.698 342.100 C 111.789 342.375,112.253 342.657,112.729 342.728 C 113.378 342.823,113.535 342.697,113.355 342.228 C 113.070 341.485,111.455 341.361,111.698 342.100 M116.140 344.876 C 116.682 345.743,118.487 345.891,118.161 345.041 C 118.043 344.734,117.438 344.408,116.817 344.317 C 115.812 344.170,115.738 344.231,116.140 344.876 M118.800 346.000 C 118.800 346.220,119.081 346.400,119.424 346.400 C 119.793 346.400,119.931 346.588,119.762 346.862 C 119.585 347.148,119.652 347.215,119.938 347.038 C 120.692 346.572,120.464 345.600,119.600 345.600 C 119.160 345.600,118.800 345.780,118.800 346.000 M121.600 347.829 C 121.600 348.202,121.872 348.406,122.267 348.329 C 123.270 348.135,123.408 347.200,122.433 347.200 C 121.942 347.200,121.600 347.458,121.600 347.829 M131.417 353.172 C 131.291 353.377,131.415 353.687,131.693 353.861 C 132.630 354.446,133.106 354.327,132.905 353.557 C 132.697 352.764,131.811 352.535,131.417 353.172 M133.862 354.717 C 134.126 355.724,135.600 355.774,135.600 354.775 C 135.600 354.223,135.323 354.000,134.637 354.000 C 133.909 354.000,133.721 354.174,133.862 354.717 M138.761 357.361 C 139.463 357.750,139.571 357.953,139.161 358.115 C 138.852 358.237,139.095 358.351,139.700 358.368 C 140.305 358.386,140.800 358.220,140.800 358.000 C 140.800 357.780,140.609 357.600,140.376 357.600 C 140.143 357.600,140.064 357.420,140.200 357.200 C 140.346 356.963,139.907 356.806,139.124 356.814 C 137.806 356.828,137.804 356.831,138.761 357.361 M142.294 358.836 C 142.571 359.897,143.029 360.112,143.029 359.181 C 143.029 358.762,142.818 358.339,142.560 358.240 C 142.263 358.126,142.165 358.346,142.294 358.836 M144.267 359.867 C 143.657 360.476,144.077 361.036,145.208 361.122 C 146.326 361.207,146.378 361.154,145.912 360.407 C 145.402 359.591,144.755 359.378,144.267 359.867 M243.451 362.400 C 246.027 365.164,246.626 367.450,244.875 367.832 C 243.048 368.231,242.741 368.381,242.977 368.763 C 243.102 368.966,242.979 369.223,242.702 369.334 C 242.399 369.456,242.478 369.549,242.900 369.568 C 243.289 369.586,243.600 369.315,243.600 368.957 C 243.600 368.604,243.825 368.400,244.100 368.505 C 247.343 369.738,247.208 365.747,243.900 362.587 L 241.400 360.200 243.451 362.400 M147.733 362.206 C 147.733 362.533,148.093 362.800,148.533 362.800 C 148.973 362.800,149.258 362.749,149.167 362.687 C 149.075 362.625,148.715 362.357,148.367 362.093 C 147.858 361.707,147.733 361.729,147.733 362.206 M153.681 365.981 C 154.181 366.782,155.647 366.987,155.350 366.215 C 155.238 365.922,154.724 365.602,154.209 365.504 C 153.422 365.353,153.337 365.430,153.681 365.981 M156.505 367.271 C 156.474 367.672,156.574 368.014,156.725 368.031 C 156.876 368.047,157.302 368.120,157.672 368.191 C 158.117 368.277,158.326 368.074,158.289 367.591 C 158.214 366.588,156.578 366.294,156.505 367.271 M162.000 370.182 C 162.000 370.530,162.562 370.869,163.400 371.026 C 164.202 371.177,164.800 371.526,164.800 371.845 C 164.800 372.150,164.993 372.400,165.229 372.400 C 166.213 372.400,165.333 370.993,164.273 370.871 C 163.657 370.800,163.054 370.485,162.934 370.171 C 162.648 369.426,162.000 369.434,162.000 370.182 M240.262 370.355 C 239.637 370.768,238.782 371.016,238.362 370.906 C 237.790 370.756,237.600 370.918,237.600 371.553 C 237.600 372.539,238.598 372.689,239.107 371.781 C 239.298 371.440,239.982 371.105,240.627 371.037 C 241.326 370.962,241.852 370.647,241.929 370.256 C 242.097 369.405,241.664 369.431,240.262 370.355 M166.400 372.957 C 166.400 373.561,167.372 374.095,167.761 373.706 C 168.288 373.179,167.953 372.400,167.200 372.400 C 166.760 372.400,166.400 372.651,166.400 372.957 M234.600 373.600 C 233.406 373.904,233.407 373.906,234.900 373.953 C 235.725 373.979,236.400 373.820,236.400 373.600 C 236.400 373.159,236.332 373.159,234.600 373.600 M169.467 373.867 C 168.916 374.417,169.229 375.200,170.000 375.200 C 170.533 375.200,170.800 374.933,170.800 374.400 C 170.800 373.629,170.017 373.316,169.467 373.867 M230.000 375.773 C 230.000 376.101,229.530 376.401,228.903 376.473 C 227.596 376.624,227.077 378.000,228.328 378.000 C 228.760 378.000,229.218 377.730,229.345 377.400 C 229.471 377.070,229.851 376.800,230.187 376.800 C 230.533 376.800,230.800 376.452,230.800 376.000 C 230.800 375.560,230.620 375.200,230.400 375.200 C 230.180 375.200,230.000 375.458,230.000 375.773 M176.400 378.320 C 176.400 378.734,177.266 379.600,177.680 379.600 C 177.856 379.600,178.000 379.240,178.000 378.800 C 178.000 378.267,177.733 378.000,177.200 378.000 C 176.760 378.000,176.400 378.144,176.400 378.320 M225.084 378.800 C 224.833 379.759,225.308 379.834,226.171 378.971 C 226.984 378.159,226.963 378.000,226.047 378.000 C 225.630 378.000,225.200 378.357,225.084 378.800 M178.700 379.465 C 178.975 379.576,179.200 379.922,179.200 380.233 C 179.200 380.545,179.560 380.800,180.000 380.800 C 180.533 380.800,180.800 380.533,180.800 380.000 C 180.800 379.358,180.544 379.206,179.500 379.232 C 178.785 379.249,178.425 379.354,178.700 379.465 M223.796 379.607 C 223.658 379.830,223.379 379.911,223.177 379.786 C 222.975 379.661,222.916 379.838,223.047 380.179 C 223.357 380.987,223.485 380.963,224.000 380.000 C 224.433 379.191,224.260 378.856,223.796 379.607 M181.884 381.600 C 182.043 382.207,182.430 382.400,183.489 382.400 C 184.566 382.400,184.833 382.537,184.655 383.000 C 184.493 383.424,184.690 383.600,185.327 383.600 C 185.943 383.600,186.249 383.346,186.290 382.800 C 186.345 382.068,184.592 381.654,182.700 381.953 C 182.535 381.979,182.400 381.730,182.400 381.400 C 182.400 381.070,182.237 380.800,182.037 380.800 C 181.838 380.800,181.769 381.160,181.884 381.600 M217.144 382.787 C 216.625 383.219,216.425 383.579,216.700 383.587 C 216.975 383.594,217.200 383.420,217.200 383.200 C 217.200 382.980,217.391 382.800,217.624 382.800 C 217.857 382.800,217.927 382.995,217.779 383.234 C 217.609 383.510,217.853 383.619,218.452 383.534 C 219.632 383.366,220.008 382.000,218.874 382.000 C 218.442 382.000,217.664 382.354,217.144 382.787 M215.067 383.467 C 214.474 384.060,214.770 385.323,215.382 384.815 C 215.703 384.549,216.153 384.447,216.382 384.589 C 216.956 384.944,216.910 384.270,216.320 383.680 C 215.776 383.136,215.452 383.081,215.067 383.467 M189.791 385.591 C 190.185 386.025,190.652 386.292,190.829 386.182 C 191.006 386.073,191.336 386.302,191.563 386.692 C 191.790 387.081,191.981 387.259,191.988 387.086 C 192.018 386.312,190.631 384.800,189.892 384.800 C 189.105 384.800,189.101 384.828,189.791 385.591 M211.890 385.579 C 211.711 386.264,211.862 386.400,212.802 386.400 C 213.647 386.400,213.904 386.225,213.828 385.700 C 213.679 384.664,212.154 384.569,211.890 385.579 M193.066 387.129 C 193.221 387.725,193.672 387.861,195.528 387.870 C 196.778 387.877,197.485 387.805,197.100 387.712 C 196.715 387.618,196.400 387.285,196.400 386.971 C 196.400 386.207,195.630 386.249,194.731 387.062 C 194.051 387.678,194.000 387.678,194.000 387.062 C 194.000 386.698,193.747 386.400,193.437 386.400 C 193.090 386.400,192.948 386.679,193.066 387.129 M206.934 386.972 C 207.094 387.388,206.795 387.599,205.878 387.718 C 205.175 387.809,205.860 387.836,207.400 387.780 C 208.940 387.723,210.290 387.638,210.400 387.591 C 210.510 387.544,210.735 387.527,210.900 387.553 C 211.065 387.579,211.200 387.414,211.200 387.187 C 211.200 386.431,210.006 386.304,209.011 386.956 C 207.916 387.673,207.439 387.783,207.774 387.242 C 207.896 387.045,207.706 386.773,207.353 386.637 C 206.903 386.465,206.777 386.564,206.934 386.972 " stroke="none" fill="#f38313" fill-rule="evenodd"></path><path id="path4" d="M116.000 17.100 C 116.000 17.412,116.214 17.595,116.475 17.508 C 117.200 17.267,117.303 16.533,116.611 16.533 C 116.275 16.533,116.000 16.788,116.000 17.100 M119.773 19.575 C 117.919 20.019,113.698 23.154,113.411 24.300 C 113.227 25.033,112.964 25.232,112.382 25.079 C 111.671 24.894,111.600 25.090,111.600 27.237 C 111.600 28.940,111.451 29.600,111.067 29.600 C 110.460 29.600,110.443 29.727,110.395 34.500 C 110.362 37.825,109.752 39.202,109.065 37.500 C 108.954 37.225,108.849 39.126,108.832 41.724 C 108.813 44.456,108.646 46.352,108.435 46.222 C 107.859 45.865,107.474 49.023,107.517 53.759 C 107.547 57.036,107.443 58.003,107.099 57.659 C 106.114 56.674,105.928 57.355,106.051 61.500 C 106.163 65.281,106.099 65.794,105.524 65.750 C 104.759 65.692,104.425 67.225,104.577 70.102 C 104.641 71.316,104.483 72.165,104.139 72.451 C 103.843 72.697,103.600 73.078,103.600 73.298 C 103.600 73.521,103.865 73.478,104.200 73.200 C 104.687 72.796,104.800 72.813,104.800 73.290 C 104.800 73.613,104.395 74.086,103.900 74.341 C 103.089 74.759,103.082 74.784,103.833 74.596 C 104.405 74.454,104.667 74.580,104.667 75.000 C 104.667 75.422,104.428 75.536,103.894 75.366 C 103.160 75.133,103.125 75.332,103.207 79.260 C 103.316 84.532,103.326 84.457,102.518 84.318 C 101.917 84.214,101.833 84.637,101.818 87.867 C 101.808 89.883,101.665 91.668,101.500 91.833 C 101.335 91.998,101.200 91.733,101.200 91.243 C 101.200 90.753,101.041 90.451,100.846 90.571 C 100.536 90.763,100.188 97.495,100.302 101.100 C 100.325 101.815,100.182 102.400,99.984 102.400 C 99.787 102.400,99.722 102.148,99.840 101.840 C 99.958 101.533,99.901 101.186,99.713 101.070 C 99.305 100.818,99.225 101.483,99.097 106.194 C 99.014 109.254,98.896 109.809,98.300 109.924 C 97.915 109.998,97.600 110.315,97.600 110.629 C 97.600 111.333,98.072 111.362,98.759 110.700 C 99.179 110.296,99.248 110.353,99.123 111.000 C 99.035 111.460,98.678 111.776,98.285 111.744 C 97.712 111.698,97.600 112.062,97.600 113.964 C 97.600 115.231,97.378 116.479,97.100 116.779 C 96.798 117.104,96.781 117.216,97.058 117.061 C 97.631 116.740,98.034 117.698,97.613 118.379 C 97.362 118.784,97.235 118.780,96.974 118.359 C 96.409 117.443,96.138 119.522,96.225 124.100 C 96.293 127.619,96.203 128.400,95.730 128.400 C 95.413 128.400,95.264 128.220,95.400 128.000 C 95.536 127.780,95.457 127.600,95.224 127.600 C 94.836 127.600,94.580 133.317,94.795 137.156 C 94.857 138.265,94.751 138.467,94.215 138.261 C 93.831 138.114,93.660 138.173,93.803 138.405 C 93.937 138.622,93.877 138.800,93.670 138.800 C 93.455 138.800,93.348 140.093,93.421 141.800 C 93.543 144.619,92.905 146.028,92.288 144.300 C 92.190 144.025,92.078 145.935,92.039 148.545 C 91.985 152.096,91.820 153.437,91.384 153.874 C 90.618 154.640,90.630 155.039,91.400 154.400 C 91.901 153.984,92.000 154.040,92.000 154.738 C 92.000 155.318,91.815 155.504,91.400 155.345 C 91.070 155.218,90.779 155.269,90.753 155.457 C 90.693 155.893,90.461 160.640,90.426 162.124 C 90.412 162.742,90.239 163.148,90.042 163.026 C 89.420 162.642,89.200 163.945,89.200 168.003 C 89.200 171.413,89.108 171.959,88.510 172.074 C 87.921 172.188,87.810 172.765,87.748 176.059 C 87.709 178.177,87.461 180.312,87.198 180.803 C 86.880 181.397,86.868 181.605,87.160 181.425 C 87.800 181.029,87.698 181.559,87.000 182.257 C 86.465 182.793,86.165 186.606,86.344 190.600 C 86.363 191.040,86.279 191.175,86.156 190.900 C 85.788 190.074,85.126 190.337,85.400 191.200 C 85.548 191.665,85.472 192.000,85.219 192.000 C 84.931 192.000,84.844 192.943,84.961 194.800 C 85.095 196.927,85.012 197.600,84.616 197.600 C 83.833 197.600,83.611 198.949,83.605 203.756 C 83.601 207.438,83.492 208.191,82.900 208.625 C 82.303 209.062,82.197 209.846,82.178 213.968 C 82.159 217.978,82.043 218.883,81.493 219.299 C 80.983 219.685,80.814 220.555,80.759 223.089 C 80.720 224.898,80.530 226.280,80.337 226.161 C 80.145 226.042,80.091 225.777,80.217 225.572 C 80.344 225.368,80.257 225.200,80.024 225.200 C 79.791 225.200,79.572 225.605,79.539 226.100 C 79.505 226.595,79.435 227.450,79.383 228.000 C 79.331 228.550,79.269 230.485,79.245 232.300 C 79.209 234.947,79.081 235.600,78.600 235.600 C 78.103 235.600,78.000 236.354,78.000 239.987 C 78.000 243.591,77.900 244.336,77.438 244.159 C 76.717 243.883,76.291 245.722,76.426 248.524 C 76.591 251.931,76.444 253.209,75.900 253.100 C 75.532 253.026,75.347 254.216,75.200 257.600 C 75.079 260.394,74.843 262.151,74.600 262.076 C 73.962 261.879,73.683 263.515,73.640 267.700 C 73.615 270.153,73.443 271.600,73.176 271.600 C 72.943 271.600,72.864 271.420,73.000 271.200 C 73.136 270.980,73.057 270.800,72.824 270.800 C 72.554 270.800,72.400 272.248,72.400 274.787 C 72.400 278.168,72.309 278.740,71.800 278.545 C 71.454 278.412,71.185 278.544,71.165 278.857 C 71.146 279.156,71.051 281.443,70.954 283.939 C 70.828 287.218,70.615 288.642,70.189 289.068 C 69.469 289.788,69.421 290.155,70.100 289.747 C 70.488 289.514,70.495 289.576,70.134 290.023 C 69.566 290.726,69.601 290.409,69.594 294.900 C 69.590 297.339,69.461 298.399,69.216 298.012 C 68.499 296.879,68.216 298.086,68.162 302.507 C 68.122 305.720,67.965 307.012,67.598 307.134 C 67.269 307.244,67.201 307.122,67.406 306.790 C 67.608 306.464,67.564 306.375,67.287 306.546 C 66.357 307.121,66.923 308.400,68.109 308.400 C 68.766 308.400,69.143 308.231,69.000 308.000 C 68.864 307.780,68.988 307.597,69.276 307.594 C 69.662 307.589,69.641 307.475,69.200 307.159 C 68.719 306.815,68.780 306.770,69.507 306.930 C 70.666 307.184,71.468 306.375,71.995 304.420 C 72.223 303.571,72.960 302.004,73.631 300.938 C 74.303 299.872,75.649 297.740,76.624 296.200 C 77.598 294.660,78.396 293.274,78.397 293.120 C 78.399 292.966,78.940 292.040,79.600 291.062 C 80.260 290.084,80.800 289.167,80.800 289.023 C 80.800 288.880,81.598 287.376,82.573 285.681 C 84.661 282.052,86.537 278.538,90.248 271.300 C 91.742 268.385,93.108 266.000,93.283 266.000 C 93.457 266.000,93.612 265.685,93.627 265.300 C 93.641 264.915,94.180 263.700,94.823 262.600 C 95.467 261.500,96.180 260.150,96.409 259.600 C 96.947 258.302,96.964 258.269,98.711 255.097 C 100.117 252.544,102.335 248.358,107.665 238.200 C 108.935 235.780,110.532 232.720,111.215 231.400 C 111.898 230.080,113.160 227.740,114.019 226.200 C 114.878 224.660,115.784 222.950,116.033 222.400 C 116.282 221.850,116.642 221.130,116.833 220.800 C 117.025 220.470,118.145 218.310,119.322 216.000 C 122.191 210.371,125.400 204.297,128.198 199.200 C 129.465 196.890,131.448 193.200,132.604 191.000 C 133.760 188.800,135.745 185.020,137.015 182.600 C 139.373 178.107,140.557 175.867,141.138 174.800 C 141.318 174.470,141.784 173.570,142.174 172.800 C 142.564 172.030,143.971 169.330,145.302 166.800 C 146.632 164.270,148.336 161.030,149.088 159.600 C 149.840 158.170,151.792 154.480,153.427 151.400 C 155.061 148.320,157.004 144.630,157.744 143.200 C 161.024 136.860,164.413 130.444,168.465 122.900 C 169.381 121.195,171.046 118.005,172.165 115.810 C 175.471 109.328,175.972 109.403,179.805 116.962 C 180.931 119.183,182.942 122.980,184.273 125.400 C 186.658 129.736,187.860 132.003,188.421 133.220 C 188.578 133.561,189.967 136.174,191.506 139.026 C 195.041 145.576,196.971 149.222,200.490 156.000 C 204.204 163.154,206.841 167.727,207.480 168.120 C 207.766 168.296,208.000 168.630,208.000 168.862 C 208.000 169.094,208.451 169.821,209.003 170.476 L 210.006 171.668 209.162 172.853 C 208.353 173.990,71.658 310.940,69.600 312.676 C 66.470 315.317,65.821 317.600,68.200 317.600 C 69.466 317.600,69.799 317.894,69.653 318.883 C 69.630 319.038,70.264 319.114,71.061 319.051 C 72.172 318.964,72.554 319.103,72.696 319.646 C 72.814 320.097,73.340 320.400,74.141 320.478 C 75.054 320.566,75.385 320.792,75.344 321.300 C 75.311 321.726,75.568 322.000,76.002 322.000 C 76.394 322.000,76.819 322.272,76.946 322.604 C 77.073 322.936,77.318 323.184,77.489 323.156 C 78.792 322.942,79.556 323.252,79.324 323.900 C 79.186 324.285,79.207 324.480,79.370 324.333 C 79.751 323.991,82.000 324.762,82.000 325.234 C 82.000 325.430,82.720 325.706,83.600 325.846 C 84.764 326.033,85.200 326.294,85.200 326.807 C 85.200 327.295,85.629 327.592,86.600 327.774 C 87.370 327.918,88.000 328.208,88.000 328.418 C 88.000 328.628,88.585 328.806,89.300 328.813 C 90.530 328.825,90.558 328.857,89.824 329.413 C 89.256 329.842,89.202 330.008,89.624 330.031 C 91.012 330.104,91.764 330.392,92.090 330.975 C 92.302 331.353,92.984 331.600,93.820 331.600 C 94.780 331.600,95.200 331.783,95.200 332.200 C 95.200 332.785,95.653 332.969,96.731 332.823 C 97.023 332.783,97.688 333.210,98.209 333.771 C 98.824 334.435,99.407 334.711,99.877 334.558 C 100.470 334.366,100.494 334.400,100.008 334.743 C 99.343 335.213,101.727 336.479,102.627 336.134 C 102.886 336.035,103.204 336.234,103.336 336.577 C 103.467 336.920,103.851 337.200,104.187 337.200 C 104.533 337.200,104.800 337.548,104.800 338.000 C 104.800 338.643,105.067 338.800,106.157 338.800 C 106.995 338.800,107.603 339.030,107.745 339.400 C 107.871 339.730,108.251 340.000,108.587 340.000 C 108.924 340.000,109.200 340.292,109.200 340.649 C 109.200 341.208,109.294 341.222,109.877 340.749 C 110.249 340.447,110.430 340.406,110.279 340.658 C 109.981 341.155,110.810 341.600,112.033 341.600 C 112.828 341.600,114.676 343.173,114.500 343.700 C 114.445 343.865,114.445 344.007,114.500 344.015 C 114.555 344.023,115.320 344.133,116.200 344.258 C 117.080 344.383,117.944 344.736,118.120 345.043 C 118.296 345.349,118.902 345.600,119.467 345.600 C 120.296 345.600,120.453 345.753,120.284 346.400 C 120.101 347.102,120.272 347.200,121.680 347.200 C 122.943 347.200,123.236 347.328,123.055 347.800 C 122.905 348.192,123.067 348.400,123.524 348.400 C 123.908 348.400,124.530 348.760,124.907 349.200 C 125.284 349.640,125.935 350.000,126.353 350.000 C 126.772 350.000,127.218 350.270,127.345 350.600 C 127.490 350.979,128.103 351.200,129.011 351.200 C 129.926 351.200,130.352 351.355,130.184 351.627 C 129.830 352.198,131.163 353.135,132.013 352.912 C 132.439 352.801,132.765 353.022,132.891 353.506 C 133.051 354.116,133.355 354.239,134.346 354.093 C 135.414 353.937,135.600 354.035,135.600 354.755 C 135.600 355.346,135.852 355.600,136.437 355.600 C 136.906 355.600,137.357 355.916,137.462 356.317 C 137.611 356.883,137.959 356.999,139.125 356.869 C 139.936 356.778,140.474 356.837,140.319 357.000 C 139.954 357.383,141.030 358.459,141.691 358.372 C 142.753 358.232,143.109 358.422,143.056 359.100 C 143.014 359.627,143.273 359.781,144.106 359.724 C 145.285 359.643,147.408 361.340,146.984 362.026 C 146.857 362.232,147.044 362.400,147.400 362.400 C 147.811 362.400,147.938 362.218,147.747 361.900 C 147.405 361.331,148.585 362.163,149.716 363.288 C 150.109 363.680,150.964 364.000,151.616 364.000 C 152.485 364.000,152.800 364.190,152.800 364.713 C 152.800 365.194,153.142 365.454,153.856 365.513 C 154.437 365.561,155.119 365.883,155.371 366.228 C 155.624 366.574,156.004 366.822,156.215 366.781 C 157.053 366.616,158.397 366.817,158.353 367.100 C 158.227 367.897,158.440 368.422,158.800 368.200 C 159.020 368.064,159.200 368.154,159.200 368.400 C 159.200 368.646,159.361 368.748,159.558 368.626 C 159.755 368.504,160.019 368.674,160.146 369.002 C 160.277 369.344,160.876 369.600,161.545 369.600 C 162.215 369.600,162.813 369.856,162.945 370.200 C 163.071 370.530,163.647 370.800,164.225 370.800 C 164.938 370.800,165.342 371.056,165.484 371.600 C 165.632 372.167,166.030 372.400,166.847 372.400 C 167.718 372.400,168.000 372.588,168.000 373.170 C 168.000 373.816,168.225 373.912,169.400 373.766 C 170.568 373.621,170.800 373.718,170.800 374.350 C 170.800 374.782,171.160 375.201,171.640 375.326 C 172.103 375.447,172.362 375.738,172.217 375.973 C 171.962 376.386,172.682 376.582,174.057 376.476 C 174.418 376.448,174.806 376.779,174.919 377.212 C 175.076 377.812,175.469 378.000,176.563 378.000 C 177.680 378.000,178.000 378.160,178.000 378.720 C 178.000 379.307,178.258 379.409,179.400 379.276 C 180.609 379.135,180.800 379.227,180.800 379.956 C 180.800 380.533,181.053 380.800,181.600 380.800 C 182.044 380.800,182.400 381.067,182.400 381.400 C 182.400 381.730,182.535 381.979,182.700 381.953 C 184.129 381.727,186.418 382.075,186.320 382.502 C 186.105 383.439,188.006 384.878,189.541 384.941 C 190.651 384.986,190.987 385.164,190.947 385.684 C 190.918 386.061,191.008 386.354,191.147 386.337 C 192.545 386.162,194.000 386.488,194.000 386.976 C 194.000 387.293,194.225 387.682,194.500 387.841 C 194.775 387.999,194.867 387.981,194.703 387.801 C 194.324 387.382,195.127 386.400,195.849 386.400 C 196.152 386.400,196.400 386.649,196.400 386.953 C 196.400 387.920,208.248 388.341,209.098 387.404 C 209.264 387.221,209.130 387.217,208.800 387.395 C 208.309 387.659,208.292 387.619,208.707 387.172 C 208.986 386.871,209.706 386.607,210.307 386.585 C 211.029 386.558,211.536 386.240,211.800 385.648 C 212.132 384.905,212.417 384.793,213.471 384.989 C 214.574 385.194,214.758 385.105,214.871 384.313 C 214.942 383.811,215.270 383.393,215.600 383.385 C 215.930 383.377,216.695 383.041,217.301 382.639 C 217.919 382.228,218.765 382.002,219.230 382.124 C 219.757 382.262,220.299 382.060,220.718 381.570 C 221.081 381.147,221.807 380.800,222.332 380.800 C 223.029 380.800,223.222 380.633,223.047 380.179 C 222.916 379.838,222.975 379.661,223.177 379.786 C 223.379 379.911,223.660 379.827,223.800 379.600 C 223.940 379.373,224.235 379.298,224.455 379.434 C 224.674 379.569,224.953 379.302,225.074 378.840 C 225.230 378.242,225.612 378.000,226.400 378.000 C 227.170 378.000,227.570 377.757,227.716 377.200 C 227.857 376.659,228.262 376.400,228.963 376.400 C 229.618 376.400,230.000 376.179,230.000 375.800 C 230.000 375.355,230.492 375.192,231.900 375.168 C 232.945 375.151,233.577 375.047,233.304 374.936 C 232.585 374.646,233.712 373.600,234.743 373.600 C 235.183 373.600,235.813 373.330,236.143 373.000 C 236.473 372.670,236.936 372.400,237.171 372.400 C 237.407 372.400,237.600 372.042,237.600 371.604 C 237.600 371.036,237.857 370.819,238.500 370.844 C 239.572 370.886,243.328 369.061,242.949 368.682 C 242.672 368.406,243.089 368.222,244.889 367.829 C 245.865 367.615,245.955 367.456,245.754 366.295 C 245.362 364.023,245.159 363.699,244.766 364.718 C 244.572 365.223,243.825 365.901,243.106 366.226 C 240.859 367.242,236.656 369.622,235.327 370.632 C 234.626 371.165,233.905 371.600,233.724 371.600 C 233.290 371.600,229.569 373.558,228.800 374.191 C 228.470 374.463,226.310 375.683,224.000 376.904 C 221.690 378.124,218.969 379.573,217.953 380.122 C 216.938 380.671,214.778 381.837,213.153 382.712 C 209.853 384.491,206.609 385.255,201.810 385.386 C 198.437 385.478,192.324 384.371,192.074 383.623 C 191.997 383.390,191.543 383.200,191.065 383.200 C 190.588 383.200,189.336 382.588,188.284 381.840 C 187.232 381.092,185.889 380.359,185.301 380.211 C 184.712 380.063,183.440 379.409,182.475 378.757 C 181.509 378.106,179.792 377.105,178.660 376.534 C 177.527 375.963,176.510 375.382,176.400 375.243 C 176.211 375.006,172.886 373.226,170.488 372.079 C 169.890 371.793,169.130 371.391,168.800 371.186 C 165.432 369.095,162.788 367.600,162.462 367.600 C 162.242 367.600,160.875 366.803,159.423 365.830 C 157.971 364.856,156.262 363.945,155.625 363.806 C 154.988 363.666,154.374 363.309,154.260 363.013 C 154.147 362.717,153.502 362.354,152.827 362.206 C 152.152 362.058,151.600 361.797,151.600 361.628 C 151.600 361.458,150.115 360.546,148.300 359.602 C 146.485 358.658,144.571 357.552,144.046 357.143 C 143.521 356.734,142.868 356.400,142.595 356.400 C 142.322 356.400,141.874 356.130,141.600 355.800 C 141.326 355.470,140.807 355.200,140.446 355.200 C 140.085 355.200,138.892 354.604,137.795 353.876 C 136.698 353.148,134.990 352.125,134.000 351.603 C 133.010 351.082,131.300 350.158,130.200 349.551 C 129.100 348.944,127.210 347.941,126.000 347.323 C 124.790 346.706,123.710 346.095,123.600 345.967 C 123.157 345.451,118.305 342.791,117.385 342.561 C 116.843 342.425,116.400 342.172,116.400 341.998 C 116.400 341.825,115.725 341.340,114.900 340.920 C 113.103 340.005,109.694 338.128,107.668 336.937 C 106.861 336.463,104.940 335.415,103.400 334.609 C 101.860 333.803,99.610 332.520,98.400 331.757 C 97.190 330.995,95.750 330.258,95.200 330.119 C 94.650 329.981,94.020 329.651,93.800 329.386 C 93.580 329.121,92.410 328.386,91.200 327.752 C 89.990 327.118,88.910 326.489,88.800 326.354 C 88.690 326.218,87.520 325.600,86.200 324.979 C 84.880 324.359,83.562 323.615,83.271 323.326 C 82.981 323.036,82.508 322.800,82.220 322.800 C 81.933 322.800,81.474 322.530,81.200 322.200 C 80.926 321.870,80.377 321.600,79.980 321.600 C 79.582 321.600,79.019 321.363,78.729 321.074 C 78.218 320.566,73.805 317.967,71.450 316.788 C 70.818 316.471,70.008 316.209,69.650 316.206 C 67.209 316.184,68.671 314.661,134.883 248.267 C 195.818 187.165,232.460 150.289,240.700 141.774 C 242.850 139.553,244.000 138.050,244.000 137.462 C 244.000 136.966,244.225 136.333,244.500 136.056 C 244.901 135.652,244.861 135.605,244.300 135.819 C 243.765 136.023,243.600 135.879,243.600 135.205 C 243.600 134.662,243.294 134.245,242.800 134.116 C 242.231 133.967,242.000 133.570,242.000 132.741 C 242.000 132.100,241.752 131.480,241.448 131.363 C 241.136 131.244,240.779 130.267,240.627 129.117 C 240.424 127.588,240.243 127.197,239.898 127.542 C 239.554 127.886,239.559 128.119,239.920 128.480 C 240.589 129.149,240.520 130.400,239.814 130.400 C 238.916 130.400,238.179 128.795,238.859 128.319 C 239.295 128.012,239.284 127.971,238.800 128.106 C 238.137 128.290,236.400 125.298,236.400 123.973 C 236.400 123.071,237.176 122.913,237.250 123.800 C 237.344 124.930,237.400 125.134,237.700 125.433 C 237.865 125.598,238.000 125.174,238.000 124.490 C 238.000 123.060,237.546 122.668,235.942 122.714 C 235.314 122.732,234.800 122.572,234.800 122.359 C 234.800 122.146,234.492 121.502,234.116 120.927 C 233.739 120.353,233.375 119.514,233.306 119.062 C 233.237 118.611,232.906 117.938,232.569 117.566 C 232.232 117.194,231.927 116.495,231.891 116.012 C 231.855 115.529,231.504 114.963,231.112 114.753 C 230.721 114.543,230.400 114.013,230.400 113.573 C 230.400 113.134,230.130 112.671,229.800 112.545 C 228.806 112.163,229.000 109.883,230.000 110.200 C 230.834 110.465,231.117 109.843,230.372 109.383 C 230.137 109.237,229.773 108.732,229.563 108.259 C 229.222 107.487,229.198 107.512,229.336 108.500 C 229.453 109.338,229.323 109.600,228.791 109.600 C 227.704 109.600,227.509 108.077,228.527 107.532 C 229.364 107.084,229.365 107.068,228.591 106.787 C 228.156 106.628,227.588 106.668,227.328 106.875 C 226.858 107.250,225.717 105.793,225.922 105.079 C 225.973 104.902,225.741 104.484,225.407 104.150 C 225.073 103.816,224.800 103.308,224.800 103.020 C 224.800 102.733,224.530 102.274,224.200 102.000 C 223.499 101.418,223.401 99.770,224.045 99.372 C 224.289 99.221,224.663 99.346,224.875 99.649 C 225.192 100.102,225.231 100.093,225.094 99.600 C 225.002 99.270,224.493 98.980,223.963 98.957 C 222.242 98.879,222.000 98.806,222.000 98.367 C 222.000 98.129,221.372 96.864,220.605 95.555 C 219.838 94.246,219.171 92.654,219.122 92.016 C 219.074 91.377,218.899 90.939,218.735 91.040 C 218.471 91.203,216.918 88.225,216.263 86.300 C 216.132 85.915,215.859 85.600,215.656 85.600 C 215.453 85.600,215.174 85.150,215.036 84.600 C 214.898 84.050,214.608 83.600,214.392 83.600 C 214.177 83.600,214.000 83.324,214.000 82.987 C 214.000 82.651,213.725 82.269,213.388 82.140 C 213.002 81.992,212.864 81.628,213.015 81.153 C 213.146 80.739,213.094 80.400,212.898 80.400 C 212.463 80.400,210.800 77.151,210.800 76.302 C 210.800 75.967,210.375 75.414,209.856 75.074 C 209.337 74.733,208.662 74.211,208.356 73.913 C 205.826 71.444,200.881 70.743,198.106 72.458 C 196.067 73.718,193.200 76.540,193.200 77.287 C 193.200 78.381,191.840 80.395,191.100 80.397 C 190.715 80.399,190.400 80.124,190.400 79.786 C 190.400 79.295,190.239 79.258,189.595 79.603 C 189.018 79.911,188.816 80.379,188.883 81.252 C 188.944 82.059,188.743 82.600,188.288 82.855 C 187.909 83.067,187.603 83.546,187.606 83.920 C 187.611 84.501,187.667 84.513,187.989 84.003 C 188.800 82.721,189.377 84.219,188.657 85.737 C 188.295 86.498,188.000 87.291,188.000 87.498 C 188.000 87.706,187.561 88.386,187.024 89.011 C 186.488 89.635,186.059 90.248,186.072 90.373 C 186.145 91.097,185.932 91.242,185.419 90.816 C 184.547 90.092,183.200 90.683,183.200 91.790 C 183.200 92.528,183.368 92.681,184.000 92.516 C 184.974 92.261,185.160 93.776,184.200 94.145 C 183.870 94.271,183.600 94.719,183.600 95.138 C 183.600 95.558,183.352 96.108,183.048 96.360 C 182.745 96.612,182.394 97.331,182.268 97.958 C 182.011 99.247,180.808 100.002,180.788 98.887 C 180.777 98.258,180.740 98.261,180.356 98.921 C 180.066 99.419,180.065 99.796,180.352 100.142 C 180.791 100.671,180.520 102.400,179.998 102.400 C 179.700 102.400,178.995 105.088,179.133 105.700 C 179.170 105.865,178.930 106.000,178.600 106.000 C 178.270 106.000,178.000 106.270,178.000 106.600 C 178.000 106.930,177.807 107.200,177.571 107.200 C 176.934 107.200,176.000 106.147,176.000 105.429 C 176.000 105.083,175.750 104.800,175.443 104.800 C 174.924 104.800,174.167 103.033,174.351 102.251 C 174.396 102.059,174.155 102.008,173.816 102.138 C 173.327 102.326,173.200 102.058,173.200 100.841 C 173.200 99.371,173.147 99.309,171.904 99.346 C 170.952 99.374,170.571 99.192,170.468 98.659 C 170.349 98.038,170.449 97.998,171.164 98.381 C 171.782 98.712,172.000 98.711,172.000 98.377 C 172.000 98.128,171.640 97.831,171.200 97.716 C 170.760 97.601,170.400 97.275,170.400 96.991 C 170.400 96.685,170.097 96.554,169.655 96.670 C 169.134 96.806,168.842 96.602,168.682 95.992 C 168.557 95.512,168.281 95.227,168.069 95.357 C 167.643 95.621,167.200 94.731,167.200 93.610 C 167.200 93.212,166.958 92.793,166.661 92.679 C 166.365 92.565,165.276 90.818,164.241 88.796 C 163.206 86.774,161.926 84.433,161.396 83.593 C 160.866 82.753,160.315 81.600,160.172 81.029 C 160.028 80.459,159.756 79.896,159.566 79.779 C 159.377 79.662,158.926 78.944,158.565 78.183 C 158.204 77.422,157.749 76.800,157.554 76.800 C 157.359 76.800,157.200 76.427,157.200 75.971 C 157.200 75.516,156.930 74.873,156.600 74.543 C 156.270 74.213,156.000 73.596,156.000 73.171 C 156.000 72.747,155.814 72.400,155.586 72.400 C 155.358 72.400,154.807 71.635,154.361 70.700 C 152.991 67.828,152.622 67.200,152.305 67.200 C 152.137 67.200,152.000 66.936,152.000 66.612 C 152.000 65.848,150.505 62.985,149.800 62.400 C 149.498 62.149,149.129 61.372,148.980 60.672 C 148.830 59.973,148.525 59.173,148.301 58.896 C 147.656 58.095,146.429 55.900,145.956 54.700 C 145.717 54.095,145.364 53.600,145.171 53.600 C 144.805 53.600,143.200 50.359,143.200 49.622 C 143.200 49.390,143.042 49.200,142.849 49.200 C 142.655 49.200,142.260 48.615,141.970 47.900 C 141.680 47.185,140.938 45.770,140.321 44.756 C 139.705 43.741,139.200 42.644,139.200 42.318 C 139.200 41.991,138.840 41.398,138.400 41.000 C 137.960 40.602,137.600 40.003,137.600 39.670 C 137.600 39.336,137.350 38.779,137.045 38.431 C 136.739 38.084,135.987 36.810,135.374 35.600 C 134.760 34.390,133.949 32.949,133.571 32.397 C 133.193 31.846,131.947 29.543,130.801 27.280 C 128.302 22.340,123.962 18.708,121.200 19.243 C 121.090 19.264,120.448 19.414,119.773 19.575 M131.275 24.025 C 131.371 24.314,131.686 24.629,131.975 24.725 C 132.275 24.825,132.425 24.675,132.325 24.375 C 132.229 24.086,131.914 23.771,131.625 23.675 C 131.325 23.575,131.175 23.725,131.275 24.025 M138.032 36.204 C 138.014 36.646,138.360 37.232,138.800 37.507 C 139.240 37.782,139.600 37.834,139.600 37.623 C 139.600 37.412,139.356 37.096,139.059 36.920 C 138.761 36.744,138.415 36.330,138.290 36.000 C 138.126 35.567,138.054 35.624,138.032 36.204 M140.855 41.186 C 141.088 41.854,141.428 42.400,141.611 42.400 C 141.794 42.400,142.022 42.805,142.118 43.300 C 142.284 44.162,142.293 44.164,142.346 43.349 C 142.375 42.881,142.130 42.274,141.800 42.000 C 141.470 41.726,141.200 41.265,141.200 40.975 C 141.200 40.685,141.027 40.340,140.816 40.210 C 140.588 40.069,140.604 40.467,140.855 41.186 M147.600 55.637 C 147.600 55.837,147.765 56.000,147.967 56.000 C 148.169 56.000,148.649 56.121,149.033 56.268 C 149.472 56.436,149.635 56.380,149.472 56.116 C 149.130 55.563,147.600 55.172,147.600 55.637 M153.200 66.200 C 153.200 66.530,153.365 66.800,153.567 66.800 C 153.769 66.800,154.206 66.904,154.538 67.032 C 154.991 67.206,155.087 67.056,154.924 66.432 C 154.675 65.480,153.200 65.282,153.200 66.200 M197.338 68.617 C 196.966 69.588,197.402 69.682,198.198 68.802 C 198.860 68.070,198.865 68.000,198.249 68.000 C 197.878 68.000,197.468 68.278,197.338 68.617 M205.654 68.763 C 206.683 69.597,207.295 69.513,206.940 68.587 C 206.816 68.264,206.264 68.000,205.713 68.000 L 204.711 68.000 205.654 68.763 M157.030 71.548 C 157.454 71.960,157.871 72.234,157.957 72.158 C 158.209 71.935,157.143 70.800,156.681 70.800 C 156.449 70.800,156.607 71.137,157.030 71.548 M191.647 76.051 C 191.621 76.409,191.330 76.926,191.000 77.200 C 190.670 77.474,190.414 77.991,190.432 78.349 C 190.450 78.727,190.545 78.800,190.657 78.522 C 190.764 78.260,191.092 78.137,191.385 78.250 C 192.122 78.532,192.307 78.014,191.976 76.600 C 191.821 75.940,191.673 75.693,191.647 76.051 M212.444 76.000 C 212.422 76.723,213.500 78.233,213.815 77.918 C 213.938 77.796,213.788 77.446,213.483 77.140 C 213.178 76.835,212.824 76.319,212.696 75.993 C 212.492 75.474,212.461 75.474,212.444 76.000 M160.400 78.364 C 160.400 78.550,160.640 78.901,160.933 79.145 C 161.336 79.479,161.467 79.446,161.467 79.011 C 161.467 78.694,161.227 78.342,160.933 78.230 C 160.640 78.117,160.400 78.177,160.400 78.364 M162.076 81.497 C 162.149 81.879,162.521 82.251,162.903 82.324 C 163.381 82.417,163.526 82.272,163.368 81.860 C 163.021 80.957,161.911 80.645,162.076 81.497 M191.600 81.687 C 191.600 82.079,191.330 82.400,191.000 82.400 C 190.670 82.400,190.400 82.754,190.400 83.187 C 190.400 83.687,190.201 83.899,189.856 83.766 C 189.556 83.651,189.353 83.162,189.405 82.679 C 189.456 82.195,189.521 81.577,189.549 81.304 C 189.632 80.496,191.600 80.864,191.600 81.687 M286.026 94.169 C 285.639 94.635,285.702 94.698,286.377 94.522 C 286.830 94.404,287.200 94.148,287.200 93.953 C 287.200 93.414,286.554 93.532,286.026 94.169 M225.190 101.181 C 225.437 101.644,225.811 101.917,226.020 101.788 C 226.572 101.446,226.497 101.280,225.570 100.784 C 224.808 100.376,224.777 100.409,225.190 101.181 M176.692 103.442 C 176.531 103.602,176.405 104.108,176.412 104.567 C 176.423 105.336,176.456 105.345,176.840 104.685 C 177.288 103.916,177.173 102.960,176.692 103.442 M272.800 108.024 C 272.800 108.257,272.620 108.336,272.400 108.200 C 272.180 108.064,272.000 108.143,272.000 108.376 C 272.000 108.609,272.270 108.800,272.600 108.800 C 272.930 108.800,273.200 108.530,273.200 108.200 C 273.200 107.870,273.110 107.600,273.000 107.600 C 272.890 107.600,272.800 107.791,272.800 108.024 M303.828 108.271 C 303.686 108.640,303.823 109.194,304.131 109.502 C 304.611 109.982,304.725 109.972,304.933 109.431 C 305.084 109.037,304.959 108.800,304.600 108.800 C 304.253 108.800,304.117 108.562,304.255 108.200 C 304.382 107.870,304.396 107.600,304.286 107.600 C 304.176 107.600,303.970 107.902,303.828 108.271 M269.196 111.004 C 268.785 111.500,268.845 111.600,269.551 111.600 C 270.018 111.600,270.400 111.431,270.400 111.224 C 270.400 110.531,269.696 110.402,269.196 111.004 M305.271 116.667 C 305.465 117.670,306.400 117.808,306.400 116.833 C 306.400 116.342,306.142 116.000,305.771 116.000 C 305.398 116.000,305.194 116.272,305.271 116.667 M260.847 119.455 C 260.369 119.995,260.391 120.060,261.014 119.939 C 261.410 119.863,261.809 119.575,261.900 119.300 C 262.130 118.610,261.516 118.700,260.847 119.455 M256.900 123.088 C 256.625 123.186,256.400 123.535,256.400 123.862 C 256.400 124.367,256.498 124.359,257.048 123.810 C 257.752 123.106,257.690 122.806,256.900 123.088 M308.160 133.767 C 308.160 134.307,308.335 134.640,308.548 134.509 C 308.772 134.370,308.828 134.550,308.681 134.934 C 308.515 135.366,308.628 135.600,309.003 135.600 C 309.467 135.600,309.499 135.385,309.162 134.500 C 308.932 133.895,308.770 133.315,308.802 133.210 C 308.834 133.106,308.703 132.968,308.510 132.903 C 308.317 132.839,308.160 133.228,308.160 133.767 M311.668 150.000 C 311.688 151.039,312.318 152.746,312.332 151.800 C 312.338 151.360,312.189 150.640,312.000 150.200 C 311.789 149.710,311.661 149.632,311.668 150.000 M312.025 160.486 C 312.009 161.180,312.288 161.726,312.800 162.000 C 313.632 162.446,313.974 161.878,313.172 161.383 C 312.937 161.237,312.588 160.732,312.397 160.259 C 312.074 159.458,312.049 159.474,312.025 160.486 M313.600 168.753 C 313.600 168.948,313.960 169.201,314.400 169.316 C 315.345 169.563,315.486 168.995,314.567 168.643 C 313.728 168.321,313.600 168.335,313.600 168.753 M316.539 187.015 C 316.393 187.395,316.523 187.833,316.842 188.034 C 317.711 188.585,317.943 188.468,317.714 187.594 C 317.426 186.493,316.848 186.209,316.539 187.015 M320.568 213.062 C 320.696 213.394,320.800 213.801,320.800 213.966 C 320.800 214.131,321.070 214.267,321.400 214.267 C 322.312 214.267,322.116 212.924,321.168 212.676 C 320.544 212.513,320.394 212.609,320.568 213.062 " stroke="none" fill="#fba513" fill-rule="evenodd"></path></g></svg>